<?xml version="1.0" encoding="UTF-8"?>
<!DOCTYPE svg PUBLIC "-//W3C//DTD SVG 1.1//EN" "http://www.w3.org/Graphics/SVG/1.1/DTD/svg11.dtd">
<svg xmlns="http://www.w3.org/2000/svg" version="1.1" width="664px" height="644px" style="shape-rendering:geometricPrecision; text-rendering:geometricPrecision; image-rendering:optimizeQuality; fill-rule:evenodd; clip-rule:evenodd" xmlns:xlink="http://www.w3.org/1999/xlink">
<g><path style="opacity:1" fill="#0d1117" d="M -0.5,-0.5 C 220.833,-0.5 442.167,-0.5 663.5,-0.5C 663.5,214.167 663.5,428.833 663.5,643.5C 442.167,643.5 220.833,643.5 -0.5,643.5C -0.5,428.833 -0.5,214.167 -0.5,-0.5 Z"/></g>
<g><path style="opacity:1" fill="#f9f9f9" d="M 482.5,93.5 C 471.589,99.2805 465.589,95.9472 464.5,83.5C 464.105,73.5441 468.772,69.3775 478.5,71C 479.984,71.6622 481.317,72.4955 482.5,73.5C 483.502,70.2775 483.835,66.2775 483.5,61.5C 485.833,61.5 488.167,61.5 490.5,61.5C 490.5,72.8333 490.5,84.1667 490.5,95.5C 488.167,95.5 485.833,95.5 483.5,95.5C 483.754,93.5992 483.42,92.9326 482.5,93.5 Z"/></g>
<g><path style="opacity:1" fill="#8b8d90" d="M 482.5,93.5 C 483.42,92.9326 483.754,93.5992 483.5,95.5C 485.833,95.5 488.167,95.5 490.5,95.5C 490.5,84.1667 490.5,72.8333 490.5,61.5C 488.167,61.5 485.833,61.5 483.5,61.5C 483.835,66.2775 483.502,70.2775 482.5,73.5C 482.5,69.1667 482.5,64.8333 482.5,60.5C 485.5,60.5 488.5,60.5 491.5,60.5C 491.5,72.5 491.5,84.5 491.5,96.5C 488.5,96.5 485.5,96.5 482.5,96.5C 482.5,95.5 482.5,94.5 482.5,93.5 Z"/></g>
<g><path style="opacity:1" fill="#f2f2f2" d="M 200.5,61.5 C 205.651,61.0796 210.484,62.0796 215,64.5C 215.667,66.8333 215.667,69.1667 215,71.5C 200.168,65.006 194.168,69.6727 197,85.5C 202.053,91.4998 207.886,92.1664 214.5,87.5C 215.971,90.3209 215.637,92.8209 213.5,95C 193.399,99.5627 184.899,91.7294 188,71.5C 190.887,66.4341 195.054,63.1008 200.5,61.5 Z"/></g>
<g><path style="opacity:1" fill="#737579" d="M 400.5,62.5 C 400.5,73.5 400.5,84.5 400.5,95.5C 406.5,95.5 412.5,95.5 418.5,95.5C 412.355,96.4902 406.022,96.8235 399.5,96.5C 399.172,84.9877 399.505,73.6544 400.5,62.5 Z"/></g>
<g><path style="opacity:1" fill="#fafafa" d="M 400.5,62.5 C 406.842,62.3338 413.175,62.5005 419.5,63C 425.161,64.8201 427.328,68.6535 426,74.5C 424.833,75.6667 423.667,76.8333 422.5,78C 427.882,82.0025 428.882,87.0025 425.5,93C 423.35,94.4114 421.016,95.2447 418.5,95.5C 412.5,95.5 406.5,95.5 400.5,95.5C 400.5,84.5 400.5,73.5 400.5,62.5 Z"/></g>
<g><path style="opacity:1" fill="#eeeeef" d="M 290.5,63.5 C 290.5,66.1667 290.5,68.8333 290.5,71.5C 293.5,71.5 296.5,71.5 299.5,71.5C 299.5,73.1667 299.5,74.8333 299.5,76.5C 296.833,76.5 294.167,76.5 291.5,76.5C 291.334,80.8461 291.501,85.1794 292,89.5C 294.041,90.4231 296.208,90.7564 298.5,90.5C 298.5,92.5 298.5,94.5 298.5,96.5C 295.15,96.665 291.817,96.4983 288.5,96C 285.667,95.1667 283.833,93.3333 283,90.5C 282.501,85.8452 282.334,81.1785 282.5,76.5C 281.5,76.5 280.5,76.5 279.5,76.5C 279.5,74.8333 279.5,73.1667 279.5,71.5C 280.791,71.7373 281.791,71.404 282.5,70.5C 282.5,68.1667 282.5,65.8333 282.5,63.5C 285.167,63.5 287.833,63.5 290.5,63.5 Z"/></g>
<g><path style="opacity:1" fill="#191c21" d="M 408.5,68.5 C 411.187,68.3359 413.854,68.5026 416.5,69C 418.032,71.33 417.698,73.33 415.5,75C 413.19,75.4966 410.857,75.6633 408.5,75.5C 408.5,73.1667 408.5,70.8333 408.5,68.5 Z"/></g>
<g><path style="opacity:1" fill="#f5f5f5" d="M 258.5,70.5 C 263.88,70.3243 269.213,70.6576 274.5,71.5C 274.5,73.5 274.5,75.5 274.5,77.5C 271.582,76.5462 268.582,75.8795 265.5,75.5C 260.684,75.101 259.684,76.601 262.5,80C 267.978,79.7083 272.478,81.5416 276,85.5C 277.293,89.5821 276.126,92.7487 272.5,95C 266.216,96.8293 259.882,96.996 253.5,95.5C 253.201,93.396 253.534,91.396 254.5,89.5C 258.336,91.3128 262.336,91.8128 266.5,91C 268.592,90.0475 268.925,88.7141 267.5,87C 262.997,86.9317 258.83,85.765 255,83.5C 252.186,77.9385 253.352,73.6051 258.5,70.5 Z"/></g>
<g><path style="opacity:1" fill="#959799" d="M 290.5,63.5 C 291.468,65.6074 291.802,67.9407 291.5,70.5C 294.385,70.1936 297.052,70.5269 299.5,71.5C 296.5,71.5 293.5,71.5 290.5,71.5C 290.5,68.8333 290.5,66.1667 290.5,63.5 Z"/></g>
<g><path style="opacity:1" fill="#f5f6f6" d="M 310.5,70.5 C 325.399,68.5641 331.566,74.8974 329,89.5C 325.999,94.5661 321.499,96.8994 315.5,96.5C 308.886,96.7856 304.72,93.7856 303,87.5C 300.785,79.6005 303.285,73.9338 310.5,70.5 Z"/></g>
<g><path style="opacity:1" fill="#fafafa" d="M 376.5,95.5 C 373.833,95.5 371.167,95.5 368.5,95.5C 368.822,89.642 368.489,83.9753 367.5,78.5C 366.341,76.6231 364.674,76.1231 362.5,77C 361.177,77.8159 360.511,78.9826 360.5,80.5C 359.513,85.3054 359.179,90.3054 359.5,95.5C 357.167,95.5 354.833,95.5 352.5,95.5C 352.822,89.642 352.489,83.9753 351.5,78.5C 350.341,76.6231 348.674,76.1231 346.5,77C 345.177,77.8159 344.511,78.9826 344.5,80.5C 343.513,85.3054 343.179,90.3054 343.5,95.5C 341.167,95.5 338.833,95.5 336.5,95.5C 336.5,87.5 336.5,79.5 336.5,71.5C 338.833,71.5 341.167,71.5 343.5,71.5C 343.345,74.8531 344.012,75.1864 345.5,72.5C 350.55,69.3607 355.05,70.0273 359,74.5C 362.396,70.7973 366.563,69.6306 371.5,71C 373.726,72.2273 375.226,74.0607 376,76.5C 376.5,82.8246 376.666,89.1579 376.5,95.5 Z"/></g>
<g><path style="opacity:1" fill="#f5f5f5" d="M 440.5,80.5 C 443.833,80.5 447.167,80.5 450.5,80.5C 450.737,79.209 450.404,78.209 449.5,77.5C 445.106,74.8483 440.606,74.8483 436,77.5C 435.242,75.2305 435.409,73.0639 436.5,71C 456.833,67.724 464.166,76.224 458.5,96.5C 455.833,96.5 453.167,96.5 450.5,96.5C 450.657,95.1266 450.49,93.7932 450,92.5C 445.076,97.3469 439.909,97.6802 434.5,93.5C 431.066,86.6122 433.066,82.2789 440.5,80.5 Z"/></g>
<g><path style="opacity:1" fill="#f7f7f7" d="M 514.5,73.5 C 514.56,74.0431 514.893,74.3764 515.5,74.5C 516.386,73.675 516.719,72.675 516.5,71.5C 518.833,71.5 521.167,71.5 523.5,71.5C 523.5,79.8333 523.5,88.1667 523.5,96.5C 521.034,103.846 515.867,106.846 508,105.5C 505.245,105.475 502.578,105.141 500,104.5C 499.192,102.421 499.359,100.421 500.5,98.5C 505.616,101.42 510.45,101.087 515,97.5C 516.169,92.7891 515.336,91.9558 512.5,95C 499.522,96.3361 494.689,90.5028 498,77.5C 500.511,71.3427 505.011,69.176 511.5,71C 512.942,71.3768 513.942,72.2101 514.5,73.5 Z"/></g>
<g><path style="opacity:1" fill="#f5f5f6" d="M 537.5,70.5 C 542.742,70.0227 547.742,70.8561 552.5,73C 556.039,76.3868 557.372,80.5534 556.5,85.5C 550.5,85.5 544.5,85.5 538.5,85.5C 538.393,87.9032 539.393,89.7365 541.5,91C 546.196,92.0382 550.529,91.2048 554.5,88.5C 555.938,90.9977 555.604,93.1644 553.5,95C 538.105,100.581 530.272,95.4142 530,79.5C 531.642,75.6997 534.142,72.6997 537.5,70.5 Z"/></g>
<g><path style="opacity:1" fill="#f4f4f4" d="M 566.5,70.5 C 571.88,70.3243 577.213,70.6576 582.5,71.5C 582.5,73.5 582.5,75.5 582.5,77.5C 579.582,76.5462 576.582,75.8795 573.5,75.5C 568.684,75.101 567.684,76.601 570.5,80C 575.003,80.0683 579.17,81.235 583,83.5C 585.317,87.5929 584.817,91.2595 581.5,94.5C 574.947,96.7728 568.281,97.1062 561.5,95.5C 561.201,93.396 561.534,91.396 562.5,89.5C 566.336,91.3128 570.336,91.8128 574.5,91C 576.592,90.0475 576.925,88.7141 575.5,87C 570.526,87.1761 566.193,85.6761 562.5,82.5C 560.29,77.1848 561.623,73.1848 566.5,70.5 Z"/></g>
<g><path style="opacity:1" fill="#97999c" d="M 230.5,88.5 C 229.511,83.0247 229.178,77.358 229.5,71.5C 227.167,71.5 224.833,71.5 222.5,71.5C 222.5,77.5 222.5,83.5 222.5,89.5C 221.51,83.3554 221.177,77.0221 221.5,70.5C 224.5,70.5 227.5,70.5 230.5,70.5C 230.5,76.5 230.5,82.5 230.5,88.5 Z"/></g>
<g><path style="opacity:1" fill="#fcfcfc" d="M 230.5,88.5 C 231.659,90.3769 233.326,90.8769 235.5,90C 237.376,89.0816 238.376,87.5816 238.5,85.5C 239.486,81.03 239.819,76.3633 239.5,71.5C 241.833,71.5 244.167,71.5 246.5,71.5C 246.5,79.5 246.5,87.5 246.5,95.5C 244.167,95.5 241.833,95.5 239.5,95.5C 239.754,93.5992 239.42,92.9326 238.5,93.5C 232.978,97.8283 227.811,97.4949 223,92.5C 222.517,91.552 222.351,90.552 222.5,89.5C 222.5,83.5 222.5,77.5 222.5,71.5C 224.833,71.5 227.167,71.5 229.5,71.5C 229.178,77.358 229.511,83.0247 230.5,88.5 Z"/></g>
<g><path style="opacity:1" fill="#909294" d="M 238.5,93.5 C 239.42,92.9326 239.754,93.5992 239.5,95.5C 241.833,95.5 244.167,95.5 246.5,95.5C 246.5,87.5 246.5,79.5 246.5,71.5C 244.167,71.5 241.833,71.5 239.5,71.5C 239.819,76.3633 239.486,81.03 238.5,85.5C 238.5,80.5 238.5,75.5 238.5,70.5C 241.5,70.5 244.5,70.5 247.5,70.5C 247.5,79.1667 247.5,87.8333 247.5,96.5C 244.5,96.5 241.5,96.5 238.5,96.5C 238.5,95.5 238.5,94.5 238.5,93.5 Z"/></g>
<g><path style="opacity:1" fill="#8f9194" d="M 282.5,70.5 C 281.791,71.404 280.791,71.7373 279.5,71.5C 279.5,73.1667 279.5,74.8333 279.5,76.5C 278.539,74.7354 278.205,72.7354 278.5,70.5C 279.833,70.5 281.167,70.5 282.5,70.5 Z"/></g>
<g><path style="opacity:1" fill="#9c9da0" d="M 345.5,72.5 C 344.012,75.1864 343.345,74.8531 343.5,71.5C 341.167,71.5 338.833,71.5 336.5,71.5C 336.5,79.5 336.5,87.5 336.5,95.5C 338.833,95.5 341.167,95.5 343.5,95.5C 343.179,90.3054 343.513,85.3054 344.5,80.5C 344.5,85.8333 344.5,91.1667 344.5,96.5C 341.5,96.5 338.5,96.5 335.5,96.5C 335.5,87.8333 335.5,79.1667 335.5,70.5C 339.179,70.0604 342.512,70.727 345.5,72.5 Z"/></g>
<g><path style="opacity:1" fill="#828487" d="M 523.5,96.5 C 523.5,88.1667 523.5,79.8333 523.5,71.5C 521.167,71.5 518.833,71.5 516.5,71.5C 516.719,72.675 516.386,73.675 515.5,74.5C 514.893,74.3764 514.56,74.0431 514.5,73.5C 515.404,72.791 515.737,71.791 515.5,70.5C 518.5,70.5 521.5,70.5 524.5,70.5C 524.826,79.3494 524.493,88.0161 523.5,96.5 Z"/></g>
<g><path style="opacity:1" fill="#15181d" d="M 313.5,76.5 C 315.527,76.3379 317.527,76.5045 319.5,77C 322.079,81.3034 322.079,85.6367 319.5,90C 311.91,90.7289 309.077,87.2289 311,79.5C 312.045,78.6266 312.878,77.6266 313.5,76.5 Z"/></g>
<g><path style="opacity:1" fill="#13161b" d="M 474.5,76.5 C 477.365,76.0548 479.865,76.7215 482,78.5C 482.667,81.8333 482.667,85.1667 482,88.5C 475.653,92.3983 472.486,90.5649 472.5,83C 472.482,80.5897 473.149,78.423 474.5,76.5 Z"/></g>
<g><path style="opacity:1" fill="#14171d" d="M 507.5,76.5 C 510.365,76.0548 512.865,76.7215 515,78.5C 516.262,82.9094 515.428,86.7428 512.5,90C 509.196,91.0419 507.029,89.8753 506,86.5C 505.153,82.9277 505.653,79.5943 507.5,76.5 Z"/></g>
<g><path style="opacity:1" fill="#181b20" d="M 541.5,75.5 C 544.9,75.0317 547.233,76.3651 548.5,79.5C 545.167,80.8333 541.833,80.8333 538.5,79.5C 539.172,77.8405 540.172,76.5072 541.5,75.5 Z"/></g>
<g><path style="opacity:1" fill="#8c8e90" d="M 449.5,77.5 C 450.404,78.209 450.737,79.209 450.5,80.5C 447.167,80.5 443.833,80.5 440.5,80.5C 443.797,80.11 446.797,79.11 449.5,77.5 Z"/></g>
<g><path style="opacity:1" fill="#0f1318" d="M 409.5,81.5 C 412.249,81.2739 414.916,81.6072 417.5,82.5C 417.833,83.5 418.167,84.5 418.5,85.5C 418.66,87.3545 417.993,88.6879 416.5,89.5C 414.167,89.5 411.833,89.5 409.5,89.5C 409.5,86.8333 409.5,84.1667 409.5,81.5 Z"/></g>
<g><path style="opacity:1" fill="#6b6e72" d="M 367.5,78.5 C 368.489,83.9753 368.822,89.642 368.5,95.5C 371.167,95.5 373.833,95.5 376.5,95.5C 373.713,96.4767 370.713,96.81 367.5,96.5C 367.5,90.5 367.5,84.5 367.5,78.5 Z"/></g>
<g><path style="opacity:1" fill="#202328" d="M 443.5,84.5 C 445.833,84.5 448.167,84.5 450.5,84.5C 450.092,90.1115 447.259,92.1115 442,90.5C 441.257,88.1261 441.757,86.1261 443.5,84.5 Z"/></g>
<g><path style="opacity:1" fill="#616367" d="M 409.5,81.5 C 409.5,84.1667 409.5,86.8333 409.5,89.5C 411.833,89.5 414.167,89.5 416.5,89.5C 414.052,90.4731 411.385,90.8064 408.5,90.5C 408.19,87.2869 408.523,84.2869 409.5,81.5 Z"/></g>
<g><path style="opacity:1" fill="#8c8e91" d="M 351.5,78.5 C 352.489,83.9753 352.822,89.642 352.5,95.5C 354.833,95.5 357.167,95.5 359.5,95.5C 359.179,90.3054 359.513,85.3054 360.5,80.5C 360.5,85.8333 360.5,91.1667 360.5,96.5C 357.5,96.5 354.5,96.5 351.5,96.5C 351.5,90.5 351.5,84.5 351.5,78.5 Z"/></g>
<g><path style="opacity:1" fill="#4a414e" d="M 122.5,184.5 C 122.5,195.833 122.5,207.167 122.5,218.5C 101.5,218.5 80.5,218.5 59.5,218.5C 59.5,207.167 59.5,195.833 59.5,184.5C 80.5,184.5 101.5,184.5 122.5,184.5 Z"/></g>
<g><path style="opacity:1" fill="#3372ca" d="M 122.5,184.5 C 141.5,184.5 160.5,184.5 179.5,184.5C 179.5,195.833 179.5,207.167 179.5,218.5C 160.5,218.5 141.5,218.5 122.5,218.5C 122.5,207.167 122.5,195.833 122.5,184.5 Z"/></g>
<g><path style="opacity:1" fill="#1c3961" d="M 122.5,184.5 C 141.659,183.503 160.993,183.17 180.5,183.5C 180.828,195.345 180.495,207.012 179.5,218.5C 179.5,207.167 179.5,195.833 179.5,184.5C 160.5,184.5 141.5,184.5 122.5,184.5 Z"/></g>
<g><path style="opacity:1" fill="#d2d0d3" d="M 90.5,193.5 C 91.8086,195.571 92.4752,198.071 92.5,201C 92.1667,203.5 91.8333,206 91.5,208.5C 90.5059,203.544 90.1725,198.544 90.5,193.5 Z"/></g>
<g><path style="opacity:1" fill="#dae5f5" d="M 144.5,193.5 C 145.805,195.397 146.471,197.731 146.5,200.5C 146.167,202.833 145.833,205.167 145.5,207.5C 144.507,202.88 144.173,198.214 144.5,193.5 Z"/></g>
<g><path style="opacity:1" fill="#e8e7e9" d="M 107.5,197.5 C 109.458,197.908 111.458,198.241 113.5,198.5C 112.372,199.262 111.205,199.929 110,200.5C 109.814,202.9 109.314,205.234 108.5,207.5C 107.513,204.232 107.18,200.898 107.5,197.5 Z"/></g>
<g><path style="opacity:1" fill="#dbdadc" d="M 71.5,197.5 C 79.3204,198.484 79.3204,199.317 71.5,200C 70.233,201.796 70.233,203.629 71.5,205.5C 73.5756,206.1 75.5756,206.433 77.5,206.5C 74.3295,209.335 71.4962,209.002 69,205.5C 68.0228,202.183 68.8562,199.516 71.5,197.5 Z"/></g>
<g><path style="opacity:1" fill="#e2eaf7" d="M 132.5,193.5 C 134.117,194.589 134.95,196.256 135,198.5C 139.064,196.727 141.231,198.06 141.5,202.5C 141.051,207.993 138.051,209.993 132.5,208.5C 132.5,203.5 132.5,198.5 132.5,193.5 Z"/></g>
<g><path style="opacity:1" fill="#d0ddf1" d="M 163.5,197.5 C 168.339,196.677 170.673,198.677 170.5,203.5C 168.076,203.192 165.743,203.526 163.5,204.5C 163.709,205.086 164.043,205.586 164.5,206C 166.657,206.078 168.657,206.245 170.5,206.5C 165.277,209.986 161.943,208.652 160.5,202.5C 161.092,200.577 162.092,198.911 163.5,197.5 Z"/></g>
<g><path style="opacity:1" fill="#487ac7" d="M 164.5,198.5 C 166.346,198.222 167.68,198.889 168.5,200.5C 166.579,201.641 164.579,201.808 162.5,201C 163.381,200.292 164.047,199.458 164.5,198.5 Z"/></g>
<g><path style="opacity:1" fill="#3571c5" d="M 134.5,199.5 C 136.167,199.5 137.833,199.5 139.5,199.5C 139.662,201.527 139.495,203.527 139,205.5C 137.644,206.38 136.144,206.714 134.5,206.5C 134.5,204.167 134.5,201.833 134.5,199.5 Z"/></g>
<g><path style="opacity:1" fill="#dfdde0" d="M 97.5,197.5 C 103.997,197.18 106.164,200.18 104,206.5C 96.9326,209.608 94.2659,207.275 96,199.5C 96.7172,198.956 97.2172,198.289 97.5,197.5 Z"/></g>
<g><path style="opacity:1" fill="#4a424e" d="M 97.5,199.5 C 99.1667,199.5 100.833,199.5 102.5,199.5C 102.662,201.527 102.495,203.527 102,205.5C 100.667,206.833 99.3333,206.833 98,205.5C 97.5045,203.527 97.3379,201.527 97.5,199.5 Z"/></g>
<g><path style="opacity:1" fill="#dcdadc" d="M 80.5,197.5 C 86.6646,196.829 89.1646,199.496 88,205.5C 85,209.5 82,209.5 79,205.5C 78.1093,202.502 78.6093,199.836 80.5,197.5 Z"/></g>
<g><path style="opacity:1" fill="#534b57" d="M 81.5,199.5 C 86.3276,199.385 87.6609,201.552 85.5,206C 80.5705,206.427 79.2372,204.26 81.5,199.5 Z"/></g>
<g><path style="opacity:1" fill="#e1eaf6" d="M 149.5,197.5 C 151.22,199.658 152.053,202.325 152,205.5C 153.333,206.833 154.667,206.833 156,205.5C 156.182,202.774 156.682,200.107 157.5,197.5C 158.487,200.768 158.82,204.102 158.5,207.5C 150.195,209.519 147.195,206.186 149.5,197.5 Z"/></g>
<g><path style="opacity:1" fill="#4b424f" d="M 531.5,272.5 C 531.5,283.5 531.5,294.5 531.5,305.5C 511.5,305.5 491.5,305.5 471.5,305.5C 471.5,294.5 471.5,283.5 471.5,272.5C 491.5,272.5 511.5,272.5 531.5,272.5 Z"/></g>
<g><path style="opacity:1" fill="#e3e2e4" d="M 517.5,285.5 C 519.39,286.18 521.39,286.347 523.5,286C 522.5,286.5 521.5,287 520.5,287.5C 519.833,290.167 519.167,292.833 518.5,295.5C 517.513,292.232 517.18,288.898 517.5,285.5 Z"/></g>
<g><path style="opacity:1" fill="#dfdee0" d="M 484.5,284.5 C 486.484,284.383 488.15,285.05 489.5,286.5C 488.467,287.452 487.3,287.452 486,286.5C 482.928,287.447 481.928,289.447 483,292.5C 484.734,293.249 486.567,293.749 488.5,294C 484.066,296.585 481.733,295.252 481.5,290C 481.12,287.297 482.12,285.463 484.5,284.5 Z"/></g>
<g><path style="opacity:1" fill="#dedcde" d="M 493.5,284.5 C 498.989,285.331 500.656,288.331 498.5,293.5C 494.162,296.753 491.495,295.753 490.5,290.5C 490.467,287.898 491.467,285.898 493.5,284.5 Z"/></g>
<g><path style="opacity:1" fill="#4a414e" d="M 493.5,286.5 C 497.473,287.075 498.473,289.242 496.5,293C 495.216,293.684 494.049,293.517 493,292.5C 492.322,290.402 492.489,288.402 493.5,286.5 Z"/></g>
<g><path style="opacity:1" fill="#dfdee0" d="M 509.5,284.5 C 514.288,285.123 516.121,287.79 515,292.5C 510.495,297 507.662,296.167 506.5,290C 506.12,287.297 507.12,285.463 509.5,284.5 Z"/></g>
<g><path style="opacity:1" fill="#4e4551" d="M 509.5,286.5 C 513.473,287.075 514.473,289.242 512.5,293C 511.207,293.49 509.873,293.657 508.5,293.5C 508.298,291.05 508.631,288.717 509.5,286.5 Z"/></g>
<g><path style="opacity:1" fill="#8d2e3c" d="M 531.5,272.5 C 531.833,272.5 532.167,272.5 532.5,272.5C 532.5,283.167 532.5,293.833 532.5,304.5C 547.5,304.5 562.5,304.5 577.5,304.5C 577.5,293.833 577.5,283.167 577.5,272.5C 578.495,283.321 578.828,294.321 578.5,305.5C 562.833,305.5 547.167,305.5 531.5,305.5C 531.5,294.5 531.5,283.5 531.5,272.5 Z"/></g>
<g><path style="opacity:1" fill="#dc3d4f" d="M 532.5,272.5 C 547.5,272.5 562.5,272.5 577.5,272.5C 577.5,283.167 577.5,293.833 577.5,304.5C 562.5,304.5 547.5,304.5 532.5,304.5C 532.5,293.833 532.5,283.167 532.5,272.5 Z"/></g>
<g><path style="opacity:1" fill="#f8d7db" d="M 550.5,285.5 C 552.527,285.338 554.527,285.505 556.5,286C 557.38,287.356 557.714,288.856 557.5,290.5C 555.076,290.192 552.743,290.526 550.5,291.5C 550.709,292.086 551.043,292.586 551.5,293C 553.761,293.239 555.761,293.406 557.5,293.5C 552.97,296.747 549.97,295.58 548.5,290C 548.519,288.167 549.185,286.667 550.5,285.5 Z"/></g>
<g><path style="opacity:1" fill="#d14151" d="M 551.5,286.5 C 552.978,286.238 554.311,286.571 555.5,287.5C 554.833,287.833 554.167,288.167 553.5,288.5C 552.287,288.253 551.62,287.586 551.5,286.5 Z"/></g>
<g><path style="opacity:1" fill="#fbe2e4" d="M 541.5,285.5 C 543.39,286.18 545.39,286.347 547.5,286C 546.5,286.5 545.5,287 544.5,287.5C 543.833,290.167 543.167,292.833 542.5,295.5C 541.513,292.232 541.18,288.898 541.5,285.5 Z"/></g>
<g><path style="opacity:1" fill="#f9e1e4" d="M 566.5,281.5 C 567.805,283.397 568.471,285.731 568.5,288.5C 568.167,290.833 567.833,293.167 567.5,295.5C 565.657,295.245 563.657,295.078 561.5,295C 557.706,288.873 559.372,285.706 566.5,285.5C 566.5,284.167 566.5,282.833 566.5,281.5 Z"/></g>
<g><path style="opacity:1" fill="#d63d4f" d="M 562.5,286.5 C 563.833,286.5 565.167,286.5 566.5,286.5C 566.662,288.527 566.495,290.527 566,292.5C 564.667,293.833 563.333,293.833 562,292.5C 561.322,290.402 561.489,288.402 562.5,286.5 Z"/></g>
<g><path style="opacity:1" fill="#4a414e" d="M 298.5,306.5 C 298.5,316.5 298.5,326.5 298.5,336.5C 279.833,336.5 261.167,336.5 242.5,336.5C 242.5,326.5 242.5,316.5 242.5,306.5C 261.167,306.5 279.833,306.5 298.5,306.5 Z"/></g>
<g><path style="opacity:1" fill="#dcb722" d="M 298.5,306.5 C 321.5,306.5 344.5,306.5 367.5,306.5C 367.5,316.5 367.5,326.5 367.5,336.5C 344.5,336.5 321.5,336.5 298.5,336.5C 298.5,326.5 298.5,316.5 298.5,306.5 Z"/></g>
<g><path style="opacity:1" fill="#d1cfd2" d="M 270.5,314.5 C 271.8,316.223 272.467,318.39 272.5,321C 272.167,323.167 271.833,325.333 271.5,327.5C 270.508,323.217 270.174,318.884 270.5,314.5 Z"/></g>
<g><path style="opacity:1" fill="#f8f1d2" d="M 327.5,314.5 C 328.8,316.223 329.467,318.39 329.5,321C 329.167,323.167 328.833,325.333 328.5,327.5C 327.508,323.217 327.174,318.884 327.5,314.5 Z"/></g>
<g><path style="opacity:1" fill="#f2e4b3" d="M 332.5,314.5 C 333.8,316.223 334.467,318.39 334.5,321C 334.167,323.167 333.833,325.333 333.5,327.5C 332.508,323.217 332.174,318.884 332.5,314.5 Z"/></g>
<g><path style="opacity:1" fill="#e1e0e2" d="M 285.5,318.5 C 287.527,318.338 289.527,318.505 291.5,319C 290.234,319.309 289.067,319.809 288,320.5C 287.814,322.9 287.314,325.234 286.5,327.5C 285.516,324.572 285.183,321.572 285.5,318.5 Z"/></g>
<g><path style="opacity:1" fill="#f6ebc6" d="M 319.5,317.5 C 323.833,317.167 325.833,319.167 325.5,323.5C 323.396,323.201 321.396,323.534 319.5,324.5C 320.748,326.69 322.414,327.023 324.5,325.5C 325.696,325.846 325.696,326.346 324.5,327C 320.167,328.489 317.833,326.989 317.5,322.5C 317.437,320.486 318.103,318.819 319.5,317.5 Z"/></g>
<g><path style="opacity:1" fill="#d4b22d" d="M 319.5,319.5 C 320.978,319.238 322.311,319.571 323.5,320.5C 321.926,321.631 320.259,321.798 318.5,321C 319.056,320.617 319.389,320.117 319.5,319.5 Z"/></g>
<g><path style="opacity:1" fill="#e1e0e2" d="M 253.5,317.5 C 255.665,317.116 257.332,317.783 258.5,319.5C 256.828,319.387 254.994,319.721 253,320.5C 252.333,321.833 252.333,323.167 253,324.5C 254.825,325.103 256.659,325.77 258.5,326.5C 252.534,328.031 250.368,325.698 252,319.5C 252.717,318.956 253.217,318.289 253.5,317.5 Z"/></g>
<g><path style="opacity:1" fill="#dcdadd" d="M 277.5,317.5 C 283.578,318.637 284.911,321.804 281.5,327C 276,328.167 273.833,326 275,320.5C 276.045,319.627 276.878,318.627 277.5,317.5 Z"/></g>
<g><path style="opacity:1" fill="#4c4450" d="M 277.5,319.5 C 281.35,319.701 282.35,321.534 280.5,325C 279.207,325.49 277.873,325.657 276.5,325.5C 276.325,323.379 276.659,321.379 277.5,319.5 Z"/></g>
<g><path style="opacity:1" fill="#d9d7d9" d="M 262.5,317.5 C 268.566,318.659 269.9,321.826 266.5,327C 261.141,328.143 258.974,325.976 260,320.5C 261.045,319.627 261.878,318.627 262.5,317.5 Z"/></g>
<g><path style="opacity:1" fill="#514955" d="M 262.5,319.5 C 266.473,320.075 267.473,322.242 265.5,326C 264.216,326.684 263.049,326.517 262,325.5C 261.322,323.402 261.489,321.402 262.5,319.5 Z"/></g>
<g><path style="opacity:1" fill="#f7eece" d="M 350.5,324.5 C 350.719,325.675 350.386,326.675 349.5,327.5C 347.676,324.56 347.009,321.56 347.5,318.5C 348.518,320.594 349.518,322.594 350.5,324.5 Z"/></g>
<g><path style="opacity:1" fill="#f6ecc8" d="M 350.5,324.5 C 350.892,317.909 352.558,317.243 355.5,322.5C 356.167,321.167 356.833,319.833 357.5,318.5C 357.833,318.833 358.167,319.167 358.5,319.5C 357.994,322.391 356.994,325.058 355.5,327.5C 354.376,325.631 353.543,323.631 353,321.5C 352.148,322.571 351.315,323.571 350.5,324.5 Z"/></g>
<g><path style="opacity:1" fill="#faf4e0" d="M 307.5,318.5 C 309.178,319.747 310.511,321.414 311.5,323.5C 312.684,321.954 313.684,320.287 314.5,318.5C 314.833,318.833 315.167,319.167 315.5,319.5C 313.756,323.246 311.923,326.912 310,330.5C 310.363,326.377 309.529,322.377 307.5,318.5 Z"/></g>
<g><path style="opacity:1" fill="#faf4df" d="M 339.5,317.5 C 344.151,318.174 345.651,320.841 344,325.5C 340.187,328.589 337.687,327.755 336.5,323C 336.613,320.601 337.613,318.768 339.5,317.5 Z"/></g>
<g><path style="opacity:1" fill="#dbb833" d="M 338.5,319.5 C 342.677,318.842 344.177,320.508 343,324.5C 341.921,326.394 340.587,326.727 339,325.5C 338.505,323.527 338.338,321.527 338.5,319.5 Z"/></g>
<g><path style="opacity:1" fill="#504149" d="M 188.5,377.5 C 159.833,377.5 131.167,377.5 102.5,377.5C 102.5,387.833 102.5,398.167 102.5,408.5C 90.1667,408.5 77.8333,408.5 65.5,408.5C 65.5,397.833 65.5,387.167 65.5,376.5C 106.67,376.168 147.67,376.501 188.5,377.5 Z"/></g>
<g><path style="opacity:1" fill="#ec702d" d="M 188.5,377.5 C 188.5,387.833 188.5,398.167 188.5,408.5C 159.833,408.5 131.167,408.5 102.5,408.5C 102.5,398.167 102.5,387.833 102.5,377.5C 131.167,377.5 159.833,377.5 188.5,377.5 Z"/></g>
<g><path style="opacity:1" fill="#dad8db" d="M 80.5,378.5 C 82.371,378.859 83.871,379.859 85,381.5C 87.9116,386.158 90.4116,390.991 92.5,396C 92.1667,396.833 91.8333,397.667 91.5,398.5C 84.8333,399.833 78.1667,399.833 71.5,398.5C 70.3691,396.926 70.2025,395.259 71,393.5C 73.9956,388.349 77.1623,383.349 80.5,378.5 Z"/></g>
<g><path style="opacity:1" fill="#514855" d="M 80.5,381.5 C 81.4959,381.414 82.3292,381.748 83,382.5C 85.5,386.833 88,391.167 90.5,395.5C 84.5,396.833 78.5,396.833 72.5,395.5C 75.1785,390.806 77.8452,386.139 80.5,381.5 Z"/></g>
<g><path style="opacity:1" fill="#fcfcfc" d="M 80.5,385.5 C 81.6491,385.791 82.3158,386.624 82.5,388C 82.1667,388.833 81.8333,389.667 81.5,390.5C 80.5481,388.955 80.2148,387.288 80.5,385.5 Z"/></g>
<g><path style="opacity:1" fill="#fefefe" d="M 144.5,389.5 C 145.167,389.833 145.833,390.167 146.5,390.5C 145.612,393.054 145.279,395.721 145.5,398.5C 144.523,395.713 144.19,392.713 144.5,389.5 Z"/></g>
<g><path style="opacity:1" fill="#fee6da" d="M 154.5,389.5 C 155.765,390.514 156.431,392.014 156.5,394C 156.167,395.5 155.833,397 155.5,398.5C 154.516,395.572 154.183,392.572 154.5,389.5 Z"/></g>
<g><path style="opacity:1" fill="#fbd5c1" d="M 136.5,389.5 C 138.604,389.201 140.604,389.534 142.5,390.5C 141.311,391.429 139.978,391.762 138.5,391.5C 138.813,394.247 138.48,396.914 137.5,399.5C 136.513,396.232 136.18,392.898 136.5,389.5 Z"/></g>
<g><path style="opacity:1" fill="#fefdfc" d="M 146.5,390.5 C 147.884,389.199 149.384,389.199 151,390.5C 151.667,393.167 151.667,395.833 151,398.5C 150.667,396.167 150.333,393.833 150,391.5C 148.989,390.663 147.822,390.33 146.5,390.5 Z"/></g>
<g><path style="opacity:1" fill="#fefcfb" d="M 162.5,390.5 C 163.884,389.199 165.384,389.199 167,390.5C 167.667,393.167 167.667,395.833 167,398.5C 166.667,396.167 166.333,393.833 166,391.5C 164.989,390.663 163.822,390.33 162.5,390.5 Z"/></g>
<g><path style="opacity:1" fill="#fbdfd0" d="M 111.5,389.5 C 112.935,390.79 113.935,392.456 114.5,394.5C 116.535,387.937 118.368,387.937 120,394.5C 120.98,392.941 121.813,391.274 122.5,389.5C 123.523,392.789 122.856,395.789 120.5,398.5C 118.879,396.847 117.712,394.847 117,392.5C 117.145,395.923 115.645,397.923 112.5,398.5C 112.296,395.482 111.963,392.482 111.5,389.5 Z"/></g>
<g><path style="opacity:1" fill="#f7bfa1" d="M 144.5,389.5 C 144.19,392.713 144.523,395.713 145.5,398.5C 145.44,399.043 145.107,399.376 144.5,399.5C 143.194,396.02 143.194,392.687 144.5,389.5 Z"/></g>
<g><path style="opacity:1" fill="#fce6da" d="M 162.5,390.5 C 161.916,393.473 161.249,396.473 160.5,399.5C 159.167,396.167 159.167,392.833 160.5,389.5C 161.183,389.863 161.85,390.196 162.5,390.5 Z"/></g>
<g><path style="opacity:1" fill="#fbe1d4" d="M 126.5,390.5 C 128.56,389.189 130.726,389.189 133,390.5C 133.497,393.146 133.664,395.813 133.5,398.5C 130.932,399.45 128.432,399.45 126,398.5C 125.213,394.277 127.047,392.111 131.5,392C 130.095,390.731 128.429,390.231 126.5,390.5 Z"/></g>
<g><path style="opacity:1" fill="#e06c2e" d="M 127.5,394.5 C 128.833,394.5 130.167,394.5 131.5,394.5C 131.5,395.5 131.5,396.5 131.5,397.5C 130.167,397.5 128.833,397.5 127.5,397.5C 127.5,396.5 127.5,395.5 127.5,394.5 Z"/></g>
<g><path style="opacity:1" fill="#fcece3" d="M 172.5,389.5 C 174.5,389.5 176.5,389.5 178.5,389.5C 178.665,393.182 178.499,396.848 178,400.5C 175.5,403.066 173.5,403.066 172,400.5C 173.88,401.93 175.38,401.596 176.5,399.5C 170.176,398.3 168.842,394.967 172.5,389.5 Z"/></g>
<g><path style="opacity:1" fill="#e67a41" d="M 173.5,390.5 C 176.243,390.077 177.576,391.244 177.5,394C 175.556,398.503 173.89,398.503 172.5,394C 172.648,392.744 172.982,391.577 173.5,390.5 Z"/></g>
<g><path style="opacity:1" fill="#4d4451" d="M 451.5,427.5 C 445.185,435.434 446.518,441.934 455.5,447C 463.834,449.869 468.834,447.203 470.5,439C 470.333,437.833 470.167,436.667 470,435.5C 465.892,433.599 462.392,430.933 459.5,427.5C 479.833,427.5 500.167,427.5 520.5,427.5C 520.5,436.167 520.5,444.833 520.5,453.5C 495.5,453.5 470.5,453.5 445.5,453.5C 445.5,444.833 445.5,436.167 445.5,427.5C 447.5,427.5 449.5,427.5 451.5,427.5 Z"/></g>
<g><path style="opacity:1" fill="#25b4bf" d="M 520.5,427.5 C 544.167,427.5 567.833,427.5 591.5,427.5C 591.5,436.167 591.5,444.833 591.5,453.5C 567.833,453.5 544.167,453.5 520.5,453.5C 520.5,444.833 520.5,436.167 520.5,427.5 Z"/></g>
<g><path style="opacity:1" fill="#e5e4e6" d="M 451.5,427.5 C 454.167,427.5 456.833,427.5 459.5,427.5C 462.392,430.933 465.892,433.599 470,435.5C 470.167,436.667 470.333,437.833 470.5,439C 468.834,447.203 463.834,449.869 455.5,447C 446.518,441.934 445.185,435.434 451.5,427.5 Z"/></g>
<g><path style="opacity:1" fill="#544c58" d="M 452.5,429.5 C 457.763,428.263 461.43,430.096 463.5,435C 467.637,434.797 469.137,436.63 468,440.5C 465.419,439.167 463.252,437.334 461.5,435C 455.958,433.108 452.458,434.941 451,440.5C 448.746,436.446 449.246,432.779 452.5,429.5 Z"/></g>
<g><path style="opacity:1" fill="#e9e8ea" d="M 511.5,434.5 C 512.482,437.962 512.815,441.629 512.5,445.5C 505.855,446.023 504.189,443.523 507.5,438C 508.793,437.51 510.127,437.343 511.5,437.5C 511.5,436.5 511.5,435.5 511.5,434.5 Z"/></g>
<g><path style="opacity:1" fill="#e2f4f5" d="M 560.5,438.5 C 562.377,439.659 562.877,441.326 562,443.5C 560.211,445.229 558.044,445.896 555.5,445.5C 554.943,440.546 555.276,437.879 556.5,437.5C 558.099,437.232 559.432,437.566 560.5,438.5 Z"/></g>
<g><path style="opacity:1" fill="#eff9fa" d="M 582.5,434.5 C 583.482,437.962 583.815,441.629 583.5,445.5C 581.396,445.799 579.396,445.466 577.5,444.5C 578.848,444.55 580.348,444.217 582,443.5C 582.494,441.866 582.66,440.199 582.5,438.5C 577.167,438.167 577.167,437.833 582.5,437.5C 582.5,436.5 582.5,435.5 582.5,434.5 Z"/></g>
<g><path style="opacity:1" fill="#564e5a" d="M 455.5,435.5 C 459.74,435.704 463.24,437.371 466,440.5C 466.483,441.448 466.649,442.448 466.5,443.5C 462.486,443.666 458.486,443.499 454.5,443C 453.083,440.257 453.416,437.757 455.5,435.5 Z"/></g>
<g><path style="opacity:1" fill="#d9d7da" d="M 496.5,437.5 C 498.344,439.279 499.01,441.612 498.5,444.5C 499.822,444.67 500.989,444.337 502,443.5C 502.333,441.5 502.667,439.5 503,437.5C 503.497,440.146 503.664,442.813 503.5,445.5C 497.095,446.594 494.762,443.927 496.5,437.5 Z"/></g>
<g><path style="opacity:1" fill="#e4e3e4" d="M 489.5,438.5 C 490.884,437.199 492.384,437.199 494,438.5C 495.917,444.34 494.084,446.34 488.5,444.5C 486.948,442.065 487.281,440.065 489.5,438.5 Z"/></g>
<g><path style="opacity:1" fill="#4f4753" d="M 489.5,438.5 C 493.071,438.408 494.238,440.074 493,443.5C 492,444.833 491,444.833 490,443.5C 489.506,441.866 489.34,440.199 489.5,438.5 Z"/></g>
<g><path style="opacity:1" fill="#ecf8f9" d="M 529.5,437.5 C 530.873,437.343 532.207,437.51 533.5,438C 528.19,439.798 528.524,440.798 534.5,441C 528.044,442.106 528.044,443.439 534.5,445C 528.593,445.746 526.927,443.246 529.5,437.5 Z"/></g>
<g><path style="opacity:1" fill="#e7e5e7" d="M 477.5,437.5 C 479.288,437.215 480.955,437.548 482.5,438.5C 481.418,438.749 480.085,438.915 478.5,439C 477.167,440.667 477.167,442.333 478.5,444C 480.085,444.085 481.418,444.251 482.5,444.5C 480.647,445.76 478.814,445.76 477,444.5C 476.297,442.071 476.463,439.738 477.5,437.5 Z"/></g>
<g><path style="opacity:1" fill="#544c58" d="M 508.5,438.5 C 509.5,438.5 510.5,438.5 511.5,438.5C 511.949,440.977 511.283,442.977 509.5,444.5C 507.261,442.867 506.928,440.867 508.5,438.5 Z"/></g>
<g><path style="opacity:1" fill="#ecf8f9" d="M 537.5,437.5 C 539.5,437.5 541.5,437.5 543.5,437.5C 543.664,440.187 543.497,442.854 543,445.5C 542.503,443.19 542.337,440.857 542.5,438.5C 541.178,438.33 540.011,438.663 539,439.5C 538.667,441.5 538.333,443.5 538,445.5C 537.503,442.854 537.336,440.187 537.5,437.5 Z"/></g>
<g><path style="opacity:1" fill="#26b3bd" d="M 560.5,438.5 C 561.401,442.241 560.068,444.241 556.5,444.5C 555.599,440.759 556.932,438.759 560.5,438.5 Z"/></g>
<g><path style="opacity:1" fill="#99d5da" d="M 551.5,438.5 C 552.629,440.628 552.796,442.961 552,445.5C 550.374,445.146 548.541,445.146 546.5,445.5C 546.343,444.127 546.51,442.793 547,441.5C 549.026,441.085 550.526,440.085 551.5,438.5 Z"/></g>
<g><path style="opacity:1" fill="#d6f0f2" d="M 568.5,438.5 C 570.357,441.018 572.19,441.018 574,438.5C 574.483,439.448 574.649,440.448 574.5,441.5C 572.712,441.215 571.045,441.548 569.5,442.5C 569.709,443.086 570.043,443.586 570.5,444C 572.085,444.085 573.418,444.251 574.5,444.5C 568.803,446.136 566.803,444.136 568.5,438.5 Z"/></g>
<g><path style="opacity:1" fill="#19262d" d="M 591.5,427.5 C 567.833,427.5 544.167,427.5 520.5,427.5C 500.167,427.5 479.833,427.5 459.5,427.5C 456.833,427.5 454.167,427.5 451.5,427.5C 449.5,427.5 447.5,427.5 445.5,427.5C 445.5,436.167 445.5,444.833 445.5,453.5C 470.5,453.5 495.5,453.5 520.5,453.5C 544.167,453.5 567.833,453.5 591.5,453.5C 542.67,454.499 493.67,454.832 444.5,454.5C 444.5,445.167 444.5,435.833 444.5,426.5C 493.67,426.168 542.67,426.501 591.5,427.5 Z"/></g>
<g><path style="opacity:1" fill="#4a414e" d="M 241.5,534.5 C 241.5,546.833 241.5,559.167 241.5,571.5C 227.5,571.5 213.5,571.5 199.5,571.5C 199.5,559.167 199.5,546.833 199.5,534.5C 213.5,534.5 227.5,534.5 241.5,534.5 Z"/></g>
<g><path style="opacity:1" fill="#c93597" d="M 241.5,534.5 C 304.167,534.5 366.833,534.5 429.5,534.5C 429.5,546.833 429.5,559.167 429.5,571.5C 366.833,571.5 304.167,571.5 241.5,571.5C 241.5,559.167 241.5,546.833 241.5,534.5 Z"/></g>
<g><path style="opacity:1" fill="#f3f2f3" d="M 223.5,543.5 C 225.369,545.635 226.036,548.302 225.5,551.5C 228.5,551.5 231.5,551.5 234.5,551.5C 234.5,552.5 234.5,553.5 234.5,554.5C 231.5,554.5 228.5,554.5 225.5,554.5C 224.833,565.167 224.167,565.167 223.5,554.5C 219.988,555.055 216.988,554.388 214.5,552.5C 217.5,552.5 220.5,552.5 223.5,552.5C 223.5,549.5 223.5,546.5 223.5,543.5 Z"/></g>
<g><path style="opacity:1" fill="#f9e7f3" d="M 284.5,544.5 C 286.442,549.056 287.108,554.056 286.5,559.5C 284.131,559.851 281.797,560.018 279.5,560C 275.513,556.38 275.513,552.713 279.5,549C 281.112,548.28 282.612,548.446 284,549.5C 284.494,547.866 284.66,546.199 284.5,544.5 Z"/></g>
<g><path style="opacity:1" fill="#f9e9f3" d="M 268.5,548.5 C 270.39,548.297 271.89,548.963 273,550.5C 273.821,553.554 273.655,556.554 272.5,559.5C 271.516,556.572 271.183,553.572 271.5,550.5C 269.856,550.286 268.356,550.62 267,551.5C 266.818,554.226 266.318,556.893 265.5,559.5C 264.513,556.232 264.18,552.898 264.5,549.5C 266.099,549.768 267.432,549.434 268.5,548.5 Z"/></g>
<g><path style="opacity:1" fill="#e7a2d0" d="M 298.5,549.5 C 297.167,552.833 297.167,556.167 298.5,559.5C 298.44,560.043 298.107,560.376 297.5,560.5C 296.167,556.5 296.167,552.5 297.5,548.5C 298.107,548.624 298.44,548.957 298.5,549.5 Z"/></g>
<g><path style="opacity:1" fill="#fbf1f8" d="M 298.5,559.5 C 297.167,556.167 297.167,552.833 298.5,549.5C 302.828,549.22 307.161,549.053 311.5,549C 312.622,552.409 312.789,555.909 312,559.5C 311.667,556.833 311.333,554.167 311,551.5C 309.612,550.446 308.112,550.28 306.5,551C 305.718,553.74 305.218,556.574 305,559.5C 304.667,556.833 304.333,554.167 304,551.5C 302.612,550.446 301.112,550.28 299.5,551C 298.556,553.719 298.223,556.552 298.5,559.5 Z"/></g>
<g><path style="opacity:1" fill="#fdf8fb" d="M 392.5,549.5 C 394.314,549.772 396.314,549.939 398.5,550C 397.128,550.402 395.795,550.902 394.5,551.5C 393.682,554.107 393.182,556.774 393,559.5C 392.502,556.183 392.335,552.85 392.5,549.5 Z"/></g>
<g><path style="opacity:1" fill="#f8e2f0" d="M 252.5,548.5 C 254.92,548.292 257.253,548.626 259.5,549.5C 260.487,552.768 260.82,556.102 260.5,559.5C 258.801,559.62 257.135,559.954 255.5,560.5C 251.733,559.59 250.733,557.424 252.5,554C 254.715,552.956 257.048,552.29 259.5,552C 256.808,551.257 254.475,550.09 252.5,548.5 Z"/></g>
<g><path style="opacity:1" fill="#f5dbec" d="M 317.5,548.5 C 324.997,548.303 327.664,551.97 325.5,559.5C 323.453,559.511 321.453,559.844 319.5,560.5C 314.631,558.706 314.298,556.206 318.5,553C 320.167,552.667 321.833,552.333 323.5,552C 321.377,550.806 319.043,550.14 316.5,550C 317.056,549.617 317.389,549.117 317.5,548.5 Z"/></g>
<g><path style="opacity:1" fill="#f6dfee" d="M 363.5,548.5 C 365.722,548.178 367.556,548.845 369,550.5C 374.096,547.232 376.596,548.732 376.5,555C 376.167,556.5 375.833,558 375.5,559.5C 374.682,556.893 374.182,554.226 374,551.5C 372.667,550.167 371.333,550.167 370,551.5C 369,562.167 368,562.167 367,551.5C 365.951,550.483 364.784,550.316 363.5,551C 362.875,553.8 362.208,556.634 361.5,559.5C 360.513,556.232 360.18,552.898 360.5,549.5C 361.791,549.737 362.791,549.404 363.5,548.5 Z"/></g>
<g><path style="opacity:1" fill="#9d99a0" d="M 223.5,543.5 C 223.5,546.5 223.5,549.5 223.5,552.5C 220.5,552.5 217.5,552.5 214.5,552.5C 216.948,551.527 219.615,551.194 222.5,551.5C 222.194,548.615 222.527,545.948 223.5,543.5 Z"/></g>
<g><path style="opacity:1" fill="#f8e4f1" d="M 328.5,548.5 C 331.325,548.758 334.158,549.092 337,549.5C 337.824,552.882 337.657,556.216 336.5,559.5C 335.516,556.572 335.183,553.572 335.5,550.5C 333.856,550.286 332.356,550.62 331,551.5C 330.818,554.226 330.318,556.893 329.5,559.5C 328.511,555.893 328.177,552.226 328.5,548.5 Z"/></g>
<g><path style="opacity:1" fill="#f6deed" d="M 381.5,548.5 C 388.433,548.696 390.6,552.029 388,558.5C 385.333,561.167 382.667,561.167 380,558.5C 379.037,554.851 379.537,551.518 381.5,548.5 Z"/></g>
<g><path style="opacity:1" fill="#f9e6f2" d="M 402.5,548.5 C 407.339,547.677 409.673,549.677 409.5,554.5C 406.753,554.187 404.086,554.52 401.5,555.5C 403.357,558.506 405.857,559.172 409,557.5C 408.99,559.471 407.824,560.471 405.5,560.5C 398.874,557.998 397.874,553.998 402.5,548.5 Z"/></g>
<g><path style="opacity:1" fill="#c74d9d" d="M 402.5,550.5 C 404.167,550.5 405.833,550.5 407.5,550.5C 407.5,551.5 407.5,552.5 407.5,553.5C 405.396,553.799 403.396,553.466 401.5,552.5C 401.863,551.817 402.196,551.15 402.5,550.5 Z"/></g>
<g><path style="opacity:1" fill="#c83e99" d="M 279.5,550.5 C 281.167,550.5 282.833,550.5 284.5,550.5C 284.663,552.857 284.497,555.19 284,557.5C 282.333,558.833 280.667,558.833 279,557.5C 278.297,555.071 278.463,552.738 279.5,550.5 Z"/></g>
<g><path style="opacity:1" fill="#c93d99" d="M 382.5,550.5 C 385.524,550.175 387.191,551.508 387.5,554.5C 386.875,557.986 385.042,558.986 382,557.5C 381.297,555.071 381.463,552.738 382.5,550.5 Z"/></g>
<g><path style="opacity:1" fill="#f4d1e8" d="M 413.5,545.5 C 414.777,546.694 415.444,548.36 415.5,550.5C 415.167,552.167 414.833,553.833 414.5,555.5C 413.513,552.232 413.18,548.898 413.5,545.5 Z"/></g>
<g><path style="opacity:1" fill="#c33894" d="M 254.5,554.5 C 255.833,554.5 257.167,554.5 258.5,554.5C 258.114,558.738 256.448,559.404 253.5,556.5C 253.863,555.817 254.196,555.15 254.5,554.5 Z"/></g>
<g><path style="opacity:1" fill="#c54399" d="M 318.5,554.5 C 320.167,554.5 321.833,554.5 323.5,554.5C 323.542,556.849 322.375,558.182 320,558.5C 317.5,557.842 317,556.509 318.5,554.5 Z"/></g>
<g><path style="opacity:1" fill="#faecf5" d="M 340.5,549.5 C 342.959,551.052 344.459,553.385 345,556.5C 346.522,554.259 347.855,551.926 349,549.5C 348.563,554.708 346.73,559.375 343.5,563.5C 343.167,563.333 342.833,563.167 342.5,563C 343.293,561.915 343.96,560.748 344.5,559.5C 342.964,556.222 341.631,552.889 340.5,549.5 Z"/></g>
<g><path style="opacity:1" fill="#f1c4e1" d="M 413.5,557.5 C 415.337,557.639 415.67,558.306 414.5,559.5C 413.702,559.043 413.369,558.376 413.5,557.5 Z"/></g>
</svg>
