<?xml version="1.0" encoding="UTF-8"?>
<!DOCTYPE svg PUBLIC "-//W3C//DTD SVG 1.1//EN" "http://www.w3.org/Graphics/SVG/1.1/DTD/svg11.dtd">
<svg xmlns="http://www.w3.org/2000/svg" version="1.1" width="664px" height="644px" style="shape-rendering:geometricPrecision; text-rendering:geometricPrecision; image-rendering:optimizeQuality; fill-rule:evenodd; clip-rule:evenodd" xmlns:xlink="http://www.w3.org/1999/xlink">
<g><path style="opacity:1" fill="#0d1117" d="M -0.5,-0.5 C 220.833,-0.5 442.167,-0.5 663.5,-0.5C 663.5,214.167 663.5,428.833 663.5,643.5C 442.167,643.5 220.833,643.5 -0.5,643.5C -0.5,428.833 -0.5,214.167 -0.5,-0.5 Z"/></g>
<g><path style="opacity:1" fill="#fefffe" d="M 212.5,61.5 C 214.833,61.5 217.167,61.5 219.5,61.5C 219.5,72.8333 219.5,84.1667 219.5,95.5C 217.167,95.5 214.833,95.5 212.5,95.5C 212.5,84.1667 212.5,72.8333 212.5,61.5 Z"/></g>
<g><path style="opacity:1" fill="#b8b9bb" d="M 212.5,61.5 C 214.948,60.5269 217.615,60.1936 220.5,60.5C 220.5,72.5 220.5,84.5 220.5,96.5C 217.615,96.8064 214.948,96.4731 212.5,95.5C 214.833,95.5 217.167,95.5 219.5,95.5C 219.5,84.1667 219.5,72.8333 219.5,61.5C 217.167,61.5 214.833,61.5 212.5,61.5 Z"/></g>
<g><path style="opacity:1" fill="#fcfcfc" d="M 290.5,70.5 C 292.265,71.4614 294.265,71.7947 296.5,71.5C 296.5,73.1667 296.5,74.8333 296.5,76.5C 294.5,76.5 292.5,76.5 290.5,76.5C 289.51,82.6446 289.177,88.9779 289.5,95.5C 287.167,95.5 284.833,95.5 282.5,95.5C 282.823,88.9779 282.49,82.6446 281.5,76.5C 280.5,76.5 279.5,76.5 278.5,76.5C 278.5,74.8333 278.5,73.1667 278.5,71.5C 279.833,71.5 281.167,71.5 282.5,71.5C 282.5,69.8333 282.5,68.1667 282.5,66.5C 282.859,64.629 283.859,63.129 285.5,62C 289.486,61.5012 293.486,61.3345 297.5,61.5C 297.5,63.1667 297.5,64.8333 297.5,66.5C 295.167,66.5 292.833,66.5 290.5,66.5C 290.5,67.8333 290.5,69.1667 290.5,70.5 Z"/></g>
<g><path style="opacity:1" fill="#f6f6f6" d="M 502.5,61.5 C 505.167,61.5 507.833,61.5 510.5,61.5C 510.5,73.1667 510.5,84.8333 510.5,96.5C 507.833,96.5 505.167,96.5 502.5,96.5C 502.649,95.448 502.483,94.448 502,93.5C 491.004,99.2506 484.837,95.9173 483.5,83.5C 484.905,71.0495 491.072,67.7162 502,73.5C 502.499,69.5138 502.666,65.5138 502.5,61.5 Z"/></g>
<g><path style="opacity:1" fill="#96989b" d="M 179.5,62.5 C 179.5,73.5 179.5,84.5 179.5,95.5C 182.167,95.5 184.833,95.5 187.5,95.5C 184.713,96.4767 181.713,96.81 178.5,96.5C 178.172,84.9877 178.505,73.6544 179.5,62.5 Z"/></g>
<g><path style="opacity:1" fill="#fbfcfc" d="M 179.5,62.5 C 185.509,62.3338 191.509,62.5005 197.5,63C 204.774,64.7165 207.607,69.2165 206,76.5C 204.86,80.3071 202.36,82.8071 198.5,84C 194.848,84.4986 191.182,84.6653 187.5,84.5C 187.5,88.1667 187.5,91.8333 187.5,95.5C 184.833,95.5 182.167,95.5 179.5,95.5C 179.5,84.5 179.5,73.5 179.5,62.5 Z"/></g>
<g><path style="opacity:1" fill="#f5f5f5" d="M 419.5,62.5 C 426.175,62.3337 432.842,62.5004 439.5,63C 445.233,65.2477 447.067,69.4144 445,75.5C 442.022,77.6629 442.355,79.6629 446,81.5C 449.01,89.6381 446.177,94.4714 437.5,96C 431.509,96.4995 425.509,96.6662 419.5,96.5C 419.5,85.1667 419.5,73.8333 419.5,62.5 Z"/></g>
<g><path style="opacity:1" fill="#f4f4f4" d="M 275.5,76.5 C 272.833,76.5 270.167,76.5 267.5,76.5C 267.228,80.9017 267.561,85.2351 268.5,89.5C 270.743,90.4742 273.076,90.8076 275.5,90.5C 275.5,92.5 275.5,94.5 275.5,96.5C 270.794,96.9148 266.294,96.2482 262,94.5C 261.581,93.3279 260.915,92.3279 260,91.5C 259.501,86.5111 259.334,81.5111 259.5,76.5C 258.167,76.5 256.833,76.5 255.5,76.5C 255.5,74.5 255.5,72.5 255.5,70.5C 256.833,70.5 258.167,70.5 259.5,70.5C 260.461,68.7354 260.795,66.7354 260.5,64.5C 262.833,64.5 265.167,64.5 267.5,64.5C 267.5,66.8333 267.5,69.1667 267.5,71.5C 270.167,71.5 272.833,71.5 275.5,71.5C 275.5,73.1667 275.5,74.8333 275.5,76.5 Z"/></g>
<g><path style="opacity:1" fill="#14171d" d="M 428.5,68.5 C 430.857,68.3367 433.19,68.5034 435.5,69C 438.167,71 438.167,73 435.5,75C 433.19,75.4966 430.857,75.6633 428.5,75.5C 428.5,73.1667 428.5,70.8333 428.5,68.5 Z"/></g>
<g><path style="opacity:1" fill="#1a1d22" d="M 187.5,68.5 C 190.93,68.1065 194.096,68.7732 197,70.5C 197.753,77.4101 194.587,80.0768 187.5,78.5C 187.5,75.1667 187.5,71.8333 187.5,68.5 Z"/></g>
<g><path style="opacity:1" fill="#f5f5f5" d="M 229.5,70.5 C 234.844,70.334 240.177,70.5006 245.5,71C 247.286,71.7845 248.786,72.9512 250,74.5C 251.429,81.7194 251.929,89.0528 251.5,96.5C 248.833,96.5 246.167,96.5 243.5,96.5C 243.657,95.1266 243.49,93.7932 243,92.5C 237.593,97.7655 232.26,97.7655 227,92.5C 225.557,87.788 226.723,83.9547 230.5,81C 234.796,80.036 239.13,79.2026 243.5,78.5C 239.024,74.8417 234.191,74.5084 229,77.5C 228.297,75.0709 228.463,72.7375 229.5,70.5 Z"/></g>
<g><path style="opacity:1" fill="#9b9d9f" d="M 275.5,76.5 C 275.5,74.8333 275.5,73.1667 275.5,71.5C 272.833,71.5 270.167,71.5 267.5,71.5C 267.5,69.1667 267.5,66.8333 267.5,64.5C 265.167,64.5 262.833,64.5 260.5,64.5C 260.795,66.7354 260.461,68.7354 259.5,70.5C 259.5,68.1667 259.5,65.8333 259.5,63.5C 262.5,63.5 265.5,63.5 268.5,63.5C 268.5,65.8333 268.5,68.1667 268.5,70.5C 271.167,70.5 273.833,70.5 276.5,70.5C 276.795,72.7354 276.461,74.7354 275.5,76.5 Z"/></g>
<g><path style="opacity:1" fill="#86888a" d="M 282.5,66.5 C 282.5,68.1667 282.5,69.8333 282.5,71.5C 281.167,71.5 279.833,71.5 278.5,71.5C 278.5,73.1667 278.5,74.8333 278.5,76.5C 277.539,74.7354 277.205,72.7354 277.5,70.5C 278.833,70.5 280.167,70.5 281.5,70.5C 281.232,68.901 281.566,67.5676 282.5,66.5 Z"/></g>
<g><path style="opacity:1" fill="#f5f5f5" d="M 307.5,70.5 C 326.076,69.8324 331.076,77.6657 322.5,94C 306.032,100.209 298.532,94.7093 300,77.5C 301.742,74.2543 304.242,71.921 307.5,70.5 Z"/></g>
<g><path style="opacity:1" fill="#fbfcfc" d="M 340.5,95.5 C 338.167,95.5 335.833,95.5 333.5,95.5C 333.5,87.5 333.5,79.5 333.5,71.5C 335.833,71.5 338.167,71.5 340.5,71.5C 340.351,72.552 340.517,73.552 341,74.5C 343.591,70.9518 347.091,69.6185 351.5,70.5C 351.808,72.924 351.474,75.2573 350.5,77.5C 346.474,75.6743 343.307,76.6743 341,80.5C 340.501,85.4889 340.334,90.4889 340.5,95.5 Z"/></g>
<g><path style="opacity:1" fill="#f6f6f7" d="M 395.5,78.5 C 395.5,84.1667 395.5,89.8333 395.5,95.5C 392.833,95.5 390.167,95.5 387.5,95.5C 387.666,89.4908 387.499,83.4908 387,77.5C 384.119,75.9717 381.786,76.6384 380,79.5C 379.501,85.1569 379.334,90.8236 379.5,96.5C 376.833,96.5 374.167,96.5 371.5,96.5C 371.666,90.1579 371.5,83.8246 371,77.5C 367.914,75.78 365.581,76.4466 364,79.5C 363.501,85.1569 363.334,90.8236 363.5,96.5C 360.833,96.5 358.167,96.5 355.5,96.5C 355.5,87.8333 355.5,79.1667 355.5,70.5C 358.167,70.5 360.833,70.5 363.5,70.5C 363.351,71.552 363.517,72.552 364,73.5C 369.281,69.301 374.281,69.6343 379,74.5C 383.643,69.5466 388.643,69.2133 394,73.5C 395.009,75.0249 395.509,76.6916 395.5,78.5 Z"/></g>
<g><path style="opacity:1" fill="#f5f5f5" d="M 477.5,78.5 C 477.5,84.1667 477.5,89.8333 477.5,95.5C 475.167,95.5 472.833,95.5 470.5,95.5C 470.719,94.325 470.386,93.325 469.5,92.5C 468.893,92.6236 468.56,92.9569 468.5,93.5C 466.834,95.8284 464.501,96.8284 461.5,96.5C 454.026,95.9056 451.193,91.9056 453,84.5C 457.635,80.3362 463.135,78.3362 469.5,78.5C 468.09,76.0454 465.923,75.0454 463,75.5C 460.287,75.411 457.787,76.0776 455.5,77.5C 454.359,75.5787 454.192,73.5787 455,71.5C 460.416,70.3611 465.916,70.1944 471.5,71C 474.857,72.5125 476.857,75.0125 477.5,78.5 Z"/></g>
<g><path style="opacity:1" fill="#f7f7f7" d="M 523.5,70.5 C 528.169,69.6997 532.003,71.033 535,74.5C 535.49,73.2068 535.657,71.8734 535.5,70.5C 538.167,70.5 540.833,70.5 543.5,70.5C 543.92,80.2471 543.42,89.9138 542,99.5C 538.711,104.473 534.044,106.473 528,105.5C 525.5,105.333 523,105.167 520.5,105C 519.231,102.861 519.231,100.695 520.5,98.5C 525.033,101.133 529.533,101.133 534,98.5C 536.607,93.0895 535.773,91.9228 531.5,95C 519.806,95.9584 514.973,90.4584 517,78.5C 518.305,75.0386 520.471,72.372 523.5,70.5 Z"/></g>
<g><path style="opacity:1" fill="#f5f5f5" d="M 557.5,70.5 C 569.557,68.5765 575.89,73.5765 576.5,85.5C 570.132,85.1703 563.798,85.5037 557.5,86.5C 558.577,89.8758 560.91,91.5425 564.5,91.5C 567.952,90.9048 571.286,89.9048 574.5,88.5C 575.938,90.9977 575.604,93.1644 573.5,95C 566.519,97.4245 559.852,96.9245 553.5,93.5C 547.139,84.3701 548.472,76.7035 557.5,70.5 Z"/></g>
<g><path style="opacity:1" fill="#f3f3f3" d="M 585.5,70.5 C 591.212,70.313 596.879,70.6463 602.5,71.5C 602.5,73.5 602.5,75.5 602.5,77.5C 598.243,76.1833 593.91,75.6833 589.5,76C 588.167,77.3333 588.167,78.6667 589.5,80C 594.69,79.6958 599.19,81.1958 603,84.5C 604.227,88.5913 603.394,92.0913 600.5,95C 594.947,96.5699 589.281,96.9032 583.5,96C 581.396,94.1644 581.062,91.9977 582.5,89.5C 586.336,91.3128 590.336,91.8128 594.5,91C 595.357,90.3109 596.023,89.4776 596.5,88.5C 593.78,86.8893 590.78,86.056 587.5,86C 581.845,84.125 580.011,80.2916 582,74.5C 582.69,72.6498 583.856,71.3164 585.5,70.5 Z"/></g>
<g><path style="opacity:1" fill="#888a8d" d="M 290.5,70.5 C 292.833,70.5 295.167,70.5 297.5,70.5C 297.795,72.7354 297.461,74.7354 296.5,76.5C 296.5,74.8333 296.5,73.1667 296.5,71.5C 294.265,71.7947 292.265,71.4614 290.5,70.5 Z"/></g>
<g><path style="opacity:1" fill="#bcbdbf" d="M 340.5,71.5 C 338.167,71.5 335.833,71.5 333.5,71.5C 333.5,79.5 333.5,87.5 333.5,95.5C 335.833,95.5 338.167,95.5 340.5,95.5C 338.052,96.4731 335.385,96.8064 332.5,96.5C 332.5,87.8333 332.5,79.1667 332.5,70.5C 335.385,70.1936 338.052,70.5269 340.5,71.5 Z"/></g>
<g><path style="opacity:1" fill="#14171c" d="M 309.5,76.5 C 317.184,75.4925 320.018,78.8258 318,86.5C 314.667,91.8333 311.333,91.8333 308,86.5C 307.157,82.8971 307.657,79.5637 309.5,76.5 Z"/></g>
<g><path style="opacity:1" fill="#14171c" d="M 494.5,76.5 C 496.527,76.3379 498.527,76.5045 500.5,77C 503.079,81.3034 503.079,85.6367 500.5,90C 497.653,90.9439 495.153,90.4439 493,88.5C 491.994,84.1985 492.494,80.1985 494.5,76.5 Z"/></g>
<g><path style="opacity:1" fill="#16191f" d="M 527.5,76.5 C 534.509,76.1291 537.009,79.4624 535,86.5C 532.473,91.384 529.473,91.7173 526,87.5C 525.013,83.5252 525.513,79.8585 527.5,76.5 Z"/></g>
<g><path style="opacity:1" fill="#171a1f" d="M 560.5,75.5 C 564.851,74.533 567.185,76.1996 567.5,80.5C 564.5,80.5 561.5,80.5 558.5,80.5C 558.392,78.4862 559.058,76.8195 560.5,75.5 Z"/></g>
<g><path style="opacity:1" fill="#929497" d="M 281.5,76.5 C 282.49,82.6446 282.823,88.9779 282.5,95.5C 284.833,95.5 287.167,95.5 289.5,95.5C 289.177,88.9779 289.51,82.6446 290.5,76.5C 290.5,83.1667 290.5,89.8333 290.5,96.5C 287.5,96.5 284.5,96.5 281.5,96.5C 281.5,89.8333 281.5,83.1667 281.5,76.5 Z"/></g>
<g><path style="opacity:1" fill="#5f6265" d="M 395.5,78.5 C 396.49,84.31 396.823,90.31 396.5,96.5C 393.287,96.81 390.287,96.4767 387.5,95.5C 390.167,95.5 392.833,95.5 395.5,95.5C 395.5,89.8333 395.5,84.1667 395.5,78.5 Z"/></g>
<g><path style="opacity:1" fill="#171a1f" d="M 428.5,81.5 C 431.187,81.3359 433.854,81.5026 436.5,82C 439.399,85.1558 439.065,87.8225 435.5,90C 433.19,90.4966 430.857,90.6633 428.5,90.5C 428.5,87.5 428.5,84.5 428.5,81.5 Z"/></g>
<g><path style="opacity:1" fill="#7a7d80" d="M 477.5,78.5 C 478.49,84.31 478.823,90.31 478.5,96.5C 475.5,96.5 472.5,96.5 469.5,96.5C 469.737,95.209 469.404,94.209 468.5,93.5C 468.56,92.9569 468.893,92.6236 469.5,92.5C 470.386,93.325 470.719,94.325 470.5,95.5C 472.833,95.5 475.167,95.5 477.5,95.5C 477.5,89.8333 477.5,84.1667 477.5,78.5 Z"/></g>
<g><path style="opacity:1" fill="#1d2025" d="M 236.5,84.5 C 238.833,84.5 241.167,84.5 243.5,84.5C 243.532,88.1193 241.865,90.4526 238.5,91.5C 234.05,90.2638 233.383,87.9305 236.5,84.5 Z"/></g>
<g><path style="opacity:1" fill="#1d2025" d="M 462.5,84.5 C 464.833,84.5 467.167,84.5 469.5,84.5C 469.777,88.2231 468.11,90.5564 464.5,91.5C 460.167,90.1718 459.501,87.8385 462.5,84.5 Z"/></g>
<g><path style="opacity:1" fill="#030303" d="M 98.5,137.5 C 125.135,136.301 137.302,148.968 135,175.5C 126.985,194.256 113.152,200.756 93.5,195C 75.9228,184.518 71.4228,170.018 80,151.5C 84.8483,145.003 91.015,140.336 98.5,137.5 Z"/></g>
<g><path style="opacity:1" fill="#efefef" d="M 101.5,148.5 C 116.988,148.486 124.488,156.153 124,171.5C 122.315,179.016 117.815,183.683 110.5,185.5C 110.74,182.421 110.407,179.421 109.5,176.5C 114.742,175.255 117.409,171.922 117.5,166.5C 116.291,163.293 115.291,159.959 114.5,156.5C 108.527,159.111 102.527,159.111 96.5,156.5C 94.928,161.407 94.428,166.407 95,171.5C 96.6887,174.269 99.1887,175.936 102.5,176.5C 101.788,178.046 100.622,179.046 99,179.5C 97.0362,178.536 95.3695,177.203 94,175.5C 93.5,175.667 93,175.833 92.5,176C 94.2134,177.378 95.5467,179.045 96.5,181C 98.1341,181.494 99.8008,181.66 101.5,181.5C 101.5,182.833 101.5,184.167 101.5,185.5C 95.4296,184.601 91.263,181.268 89,175.5C 85.0956,162.647 89.2623,153.647 101.5,148.5 Z"/></g>
<g><path style="opacity:1" fill="#f6f6f6" d="M 441.5,159.5 C 482.167,159.5 522.833,159.5 563.5,159.5C 563.5,173.167 563.5,186.833 563.5,200.5C 543.167,200.5 522.833,200.5 502.5,200.5C 502.5,202.833 502.5,205.167 502.5,207.5C 493.5,207.5 484.5,207.5 475.5,207.5C 475.5,205.167 475.5,202.833 475.5,200.5C 464.167,200.5 452.833,200.5 441.5,200.5C 441.5,186.833 441.5,173.167 441.5,159.5 Z"/></g>
<g><path style="opacity:1" fill="#f9f9f9" d="M 314.5,177.5 C 313.5,177.5 312.5,177.5 311.5,177.5C 311.253,174.061 311.586,170.728 312.5,167.5C 314.827,167.335 316.993,166.669 319,165.5C 319.498,168.817 319.665,172.15 319.5,175.5C 317.447,175.402 315.78,176.069 314.5,177.5 Z"/></g>
<g><path style="opacity:1" fill="#bfc0c1" d="M 319.5,158.5 C 320.492,158.328 321.158,158.662 321.5,159.5C 320.566,160.568 320.232,161.901 320.5,163.5C 324.5,163.833 324.5,164.167 320.5,164.5C 319.971,168.351 320.638,171.851 322.5,175C 320.638,178.149 319.971,181.649 320.5,185.5C 320.167,185.5 319.833,185.5 319.5,185.5C 319.817,182.428 319.484,179.428 318.5,176.5C 317.264,177.246 315.93,177.579 314.5,177.5C 315.78,176.069 317.447,175.402 319.5,175.5C 319.665,172.15 319.498,168.817 319,165.5C 316.993,166.669 314.827,167.335 312.5,167.5C 314.22,166.136 316.22,165.136 318.5,164.5C 319.466,162.604 319.799,160.604 319.5,158.5 Z"/></g>
<g><path style="opacity:1" fill="#0f1318" d="M 468.5,173.5 C 466.393,172.532 464.059,172.198 461.5,172.5C 461.5,179.5 461.5,186.5 461.5,193.5C 457.167,193.5 452.833,193.5 448.5,193.5C 448.5,184.5 448.5,175.5 448.5,166.5C 457.5,166.5 466.5,166.5 475.5,166.5C 475.5,175.5 475.5,184.5 475.5,193.5C 473.167,193.5 470.833,193.5 468.5,193.5C 468.5,186.833 468.5,180.167 468.5,173.5 Z"/></g>
<g><path style="opacity:1" fill="#111419" d="M 482.5,166.5 C 491.5,166.5 500.5,166.5 509.5,166.5C 509.5,175.5 509.5,184.5 509.5,193.5C 504.833,193.5 500.167,193.5 495.5,193.5C 495.5,195.833 495.5,198.167 495.5,200.5C 491.167,200.5 486.833,200.5 482.5,200.5C 482.5,189.167 482.5,177.833 482.5,166.5 Z"/></g>
<g><path style="opacity:1" fill="#0f1318" d="M 550.5,193.5 C 550.5,186.5 550.5,179.5 550.5,172.5C 547.941,172.198 545.607,172.532 543.5,173.5C 543.5,180.167 543.5,186.833 543.5,193.5C 541.167,193.5 538.833,193.5 536.5,193.5C 536.5,186.833 536.5,180.167 536.5,173.5C 534.393,172.532 532.059,172.198 529.5,172.5C 529.5,179.5 529.5,186.5 529.5,193.5C 525.167,193.5 520.833,193.5 516.5,193.5C 516.5,184.5 516.5,175.5 516.5,166.5C 529.833,166.5 543.167,166.5 556.5,166.5C 556.5,175.5 556.5,184.5 556.5,193.5C 554.5,193.5 552.5,193.5 550.5,193.5 Z"/></g>
<g><path style="opacity:1" fill="#ececec" d="M 319.5,158.5 C 319.799,160.604 319.466,162.604 318.5,164.5C 316.22,165.136 314.22,166.136 312.5,167.5C 311.18,164.101 311.18,160.601 312.5,157C 310.597,156.226 308.93,156.56 307.5,158C 308.448,158.483 309.448,158.649 310.5,158.5C 310.024,163.643 310.024,168.643 310.5,173.5C 310.774,176.786 309.44,178.953 306.5,180C 307.784,180.684 308.951,180.517 310,179.5C 310.498,182.817 310.665,186.15 310.5,189.5C 308.692,189.491 307.025,189.991 305.5,191C 306.899,191.595 308.232,191.428 309.5,190.5C 310.484,193.428 310.817,196.428 310.5,199.5C 307.739,201.205 304.739,202.538 301.5,203.5C 301.5,200.167 301.5,196.833 301.5,193.5C 298.437,193.863 295.437,194.53 292.5,195.5C 289.408,195.192 286.575,194.192 284,192.5C 283.204,185.087 283.37,177.754 284.5,170.5C 286.937,170.244 289.271,169.577 291.5,168.5C 292.197,164.623 292.864,160.79 293.5,157C 299.153,155.06 304.819,153.227 310.5,151.5C 313.592,151.808 316.425,152.808 319,154.5C 319.49,155.793 319.657,157.127 319.5,158.5 Z"/></g>
<g><path style="opacity:1" fill="#15181e" d="M 303.5,163.5 C 306.957,163.667 307.29,164.667 304.5,166.5C 303.614,165.675 303.281,164.675 303.5,163.5 Z"/></g>
<g><path style="opacity:1" fill="#f3f3f3" d="M 321.5,159.5 C 323.827,159.665 325.993,160.331 328,161.5C 328.5,168.826 328.666,176.159 328.5,183.5C 325.779,183.963 323.112,184.629 320.5,185.5C 319.971,181.649 320.638,178.149 322.5,175C 320.638,171.851 319.971,168.351 320.5,164.5C 324.5,164.167 324.5,163.833 320.5,163.5C 320.232,161.901 320.566,160.568 321.5,159.5 Z"/></g>
<g><path style="opacity:1" fill="#959799" d="M 468.5,173.5 C 466.5,173.5 464.5,173.5 462.5,173.5C 462.824,180.354 462.491,187.021 461.5,193.5C 461.5,186.5 461.5,179.5 461.5,172.5C 464.059,172.198 466.393,172.532 468.5,173.5 Z"/></g>
<g><path style="opacity:1" fill="#9b9d9f" d="M 502.5,173.5 C 500.5,173.5 498.5,173.5 496.5,173.5C 496.5,177.833 496.5,182.167 496.5,186.5C 495.514,182.03 495.181,177.363 495.5,172.5C 498.059,172.198 500.393,172.532 502.5,173.5 Z"/></g>
<g><path style="opacity:1" fill="#fefffe" d="M 502.5,173.5 C 502.5,177.833 502.5,182.167 502.5,186.5C 500.5,186.5 498.5,186.5 496.5,186.5C 496.5,182.167 496.5,177.833 496.5,173.5C 498.5,173.5 500.5,173.5 502.5,173.5 Z"/></g>
<g><path style="opacity:1" fill="#a8a9ab" d="M 536.5,173.5 C 534.5,173.5 532.5,173.5 530.5,173.5C 530.824,180.354 530.491,187.021 529.5,193.5C 529.5,186.5 529.5,179.5 529.5,172.5C 532.059,172.198 534.393,172.532 536.5,173.5 Z"/></g>
<g><path style="opacity:1" fill="#a8a9ab" d="M 543.5,173.5 C 545.607,172.532 547.941,172.198 550.5,172.5C 550.5,179.5 550.5,186.5 550.5,193.5C 549.509,187.021 549.176,180.354 549.5,173.5C 547.5,173.5 545.5,173.5 543.5,173.5 Z"/></g>
<g><path style="opacity:1" fill="#afb0b2" d="M 312.5,167.5 C 311.586,170.728 311.253,174.061 311.5,177.5C 312.5,177.5 313.5,177.5 314.5,177.5C 313.791,178.404 312.791,178.737 311.5,178.5C 310.971,182.351 311.638,185.851 313.5,189C 311.638,192.149 310.971,195.649 311.5,199.5C 311.167,199.5 310.833,199.5 310.5,199.5C 310.817,196.428 310.484,193.428 309.5,190.5C 308.232,191.428 306.899,191.595 305.5,191C 307.025,189.991 308.692,189.491 310.5,189.5C 310.665,186.15 310.498,182.817 310,179.5C 308.951,180.517 307.784,180.684 306.5,180C 309.44,178.953 310.774,176.786 310.5,173.5C 310.024,168.643 310.024,163.643 310.5,158.5C 309.448,158.649 308.448,158.483 307.5,158C 308.93,156.56 310.597,156.226 312.5,157C 311.18,160.601 311.18,164.101 312.5,167.5 Z"/></g>
<g><path style="opacity:1" fill="#eeeeee" d="M 319.5,185.5 C 319.665,189.182 319.499,192.848 319,196.5C 316.692,197.991 314.192,198.991 311.5,199.5C 310.971,195.649 311.638,192.149 313.5,189C 311.638,185.851 310.971,182.351 311.5,178.5C 312.791,178.737 313.791,178.404 314.5,177.5C 315.93,177.579 317.264,177.246 318.5,176.5C 319.484,179.428 319.817,182.428 319.5,185.5 Z"/></g>
<g><path style="opacity:1" fill="#191c21" d="M 284.5,170.5 C 283.37,177.754 283.204,185.087 284,192.5C 286.575,194.192 289.408,195.192 292.5,195.5C 295.437,194.53 298.437,193.863 301.5,193.5C 301.5,196.833 301.5,200.167 301.5,203.5C 298.769,205.198 295.769,206.531 292.5,207.5C 283.5,204.167 274.5,200.833 265.5,197.5C 264.341,193.878 264.175,190.211 265,186.5C 267.667,185.167 270.333,183.833 273,182.5C 273.333,179.167 273.667,175.833 274,172.5C 276.398,171.144 278.898,169.977 281.5,169C 281.951,166.242 283.451,164.409 286,163.5C 287.762,163.944 287.595,164.444 285.5,165C 287.246,165.471 288.913,166.138 290.5,167C 288.182,167.342 286.015,166.842 284,165.5C 283.22,167.387 283.387,169.054 284.5,170.5 Z"/></g>
<g><path style="opacity:1" fill="#1d2025" d="M 315.5,191.5 C 317.048,191.821 317.715,192.821 317.5,194.5C 314.752,194.598 314.086,193.598 315.5,191.5 Z"/></g>
<g><path style="opacity:1" fill="#4a414e" d="M 121.5,248.5 C 121.5,259.5 121.5,270.5 121.5,281.5C 94.5,281.5 67.5,281.5 40.5,281.5C 40.5,270.5 40.5,259.5 40.5,248.5C 67.5,248.5 94.5,248.5 121.5,248.5 Z"/></g>
<g><path style="opacity:1" fill="#3371c8" d="M 121.5,248.5 C 142.5,248.5 163.5,248.5 184.5,248.5C 184.5,259.5 184.5,270.5 184.5,281.5C 163.5,281.5 142.5,281.5 121.5,281.5C 121.5,270.5 121.5,259.5 121.5,248.5 Z"/></g>
<g><path style="opacity:1" fill="#4a414e" d="M 509.5,249.5 C 509.5,260.167 509.5,270.833 509.5,281.5C 491.167,281.5 472.833,281.5 454.5,281.5C 454.5,270.833 454.5,260.167 454.5,249.5C 472.833,249.5 491.167,249.5 509.5,249.5 Z"/></g>
<g><path style="opacity:1" fill="#3573ca" d="M 510.5,249.5 C 534.5,249.5 558.5,249.5 582.5,249.5C 582.5,259.833 582.5,270.167 582.5,280.5C 558.5,280.5 534.5,280.5 510.5,280.5C 510.5,270.167 510.5,259.833 510.5,249.5 Z"/></g>
<g><path style="opacity:1" fill="#4b424f" d="M 293.5,249.5 C 293.5,260.167 293.5,270.833 293.5,281.5C 276.167,281.5 258.833,281.5 241.5,281.5C 241.5,270.833 241.5,260.167 241.5,249.5C 258.833,249.5 276.167,249.5 293.5,249.5 Z"/></g>
<g><path style="opacity:1" fill="#3572c9" d="M 294.5,249.5 C 318.167,249.5 341.833,249.5 365.5,249.5C 365.5,259.833 365.5,270.167 365.5,280.5C 341.833,280.5 318.167,280.5 294.5,280.5C 294.5,270.167 294.5,259.833 294.5,249.5 Z"/></g>
<g><path style="opacity:1" fill="#bfbcc0" d="M 68.5,257.5 C 69.8048,259.397 70.4714,261.731 70.5,264.5C 70.1667,266.833 69.8333,269.167 69.5,271.5C 68.5067,266.88 68.1734,262.214 68.5,257.5 Z"/></g>
<g><path style="opacity:1" fill="#c9c6ca" d="M 282.5,258.5 C 284.337,258.639 284.67,259.306 283.5,260.5C 282.702,260.043 282.369,259.376 282.5,258.5 Z"/></g>
<g><path style="opacity:1" fill="#d3dff2" d="M 170.5,258.5 C 171.94,262.275 173.273,266.275 174.5,270.5C 172.167,271.833 169.833,271.833 167.5,270.5C 168.325,269.614 169.325,269.281 170.5,269.5C 170.5,266.833 170.5,264.167 170.5,261.5C 169.325,261.719 168.325,261.386 167.5,260.5C 168.602,259.824 169.602,259.158 170.5,258.5 Z"/></g>
<g><path style="opacity:1" fill="#f5f8fc" d="M 317.5,258.5 C 318.483,262.298 318.817,266.298 318.5,270.5C 318.167,271.833 317.833,271.833 317.5,270.5C 317.5,267.5 317.5,264.5 317.5,261.5C 316.448,261.649 315.448,261.483 314.5,261C 315.942,260.623 316.942,259.79 317.5,258.5 Z"/></g>
<g><path style="opacity:1" fill="#f5f8fc" d="M 568.5,258.5 C 569.483,262.298 569.817,266.298 569.5,270.5C 569.167,271.833 568.833,271.833 568.5,270.5C 568.5,267.5 568.5,264.5 568.5,261.5C 567.448,261.649 566.448,261.483 565.5,261C 566.942,260.623 567.942,259.79 568.5,258.5 Z"/></g>
<g><path style="opacity:1" fill="#dee7f6" d="M 532.5,258.5 C 534.288,258.215 535.955,258.548 537.5,259.5C 535.149,260.012 533.149,261.012 531.5,262.5C 536.395,262.554 538.562,264.888 538,269.5C 535.333,272.167 532.667,272.167 530,269.5C 528.812,265.259 529.645,261.592 532.5,258.5 Z"/></g>
<g><path style="opacity:1" fill="#e3ebf7" d="M 548.5,258.5 C 551.044,258.104 553.211,258.771 555,260.5C 555.667,263.167 555.667,265.833 555,268.5C 553.475,271.087 551.308,271.92 548.5,271C 550.861,270.803 552.528,269.636 553.5,267.5C 546.855,266.911 545.189,263.911 548.5,258.5 Z"/></g>
<g><path style="opacity:1" fill="#d0ced2" d="M 49.5,261.5 C 51.7544,261.723 54.0878,262.056 56.5,262.5C 55.0095,263.244 53.5095,263.91 52,264.5C 51.8142,266.9 51.3142,269.234 50.5,271.5C 49.513,268.232 49.1796,264.898 49.5,261.5 Z"/></g>
<g><path style="opacity:1" fill="#d0def2" d="M 134.5,258.5 C 135.94,262.275 137.273,266.275 138.5,270.5C 136.167,271.833 133.833,271.833 131.5,270.5C 132.325,269.614 133.325,269.281 134.5,269.5C 134.5,266.833 134.5,264.167 134.5,261.5C 133.325,261.719 132.325,261.386 131.5,260.5C 132.602,259.824 133.602,259.158 134.5,258.5 Z"/></g>
<g><path style="opacity:1" fill="#e5ecf8" d="M 350.5,258.5 C 352.722,258.178 354.556,258.845 356,260.5C 357.023,264.317 356.523,267.817 354.5,271C 352.559,271.743 350.726,271.576 349,270.5C 347.994,266.198 348.494,262.198 350.5,258.5 Z"/></g>
<g><path style="opacity:1" fill="#3d76c9" d="M 350.5,260.5 C 351.833,260.5 353.167,260.5 354.5,260.5C 354.665,263.518 354.498,266.518 354,269.5C 352.286,270.925 350.953,270.592 350,268.5C 349.278,265.739 349.445,263.073 350.5,260.5 Z"/></g>
<g><path style="opacity:1" fill="#3f77c9" d="M 548.5,260.5 C 550.167,260.5 551.833,260.5 553.5,260.5C 553.5,262.167 553.5,263.833 553.5,265.5C 549.5,266.167 547.833,264.5 548.5,260.5 Z"/></g>
<g><path style="opacity:1" fill="#e0dfe1" d="M 282.5,261.5 C 283.777,262.694 284.444,264.36 284.5,266.5C 284.167,268.167 283.833,269.833 283.5,271.5C 282.513,268.232 282.18,264.898 282.5,261.5 Z"/></g>
<g><path style="opacity:1" fill="#d6d4d7" d="M 463.5,261.5 C 465.152,262.807 466.818,262.807 468.5,261.5C 470.029,261.529 471.196,262.196 472,263.5C 472.818,266.227 472.652,268.894 471.5,271.5C 470.52,268.914 470.187,266.247 470.5,263.5C 468.856,263.286 467.356,263.62 466,264.5C 465.814,266.9 465.314,269.234 464.5,271.5C 463.513,268.232 463.18,264.898 463.5,261.5 Z"/></g>
<g><path style="opacity:1" fill="#9b969d" d="M 476.5,262.5 C 475.517,266.298 475.183,270.298 475.5,274.5C 474.189,270.317 474.189,265.984 475.5,261.5C 476.107,261.624 476.44,261.957 476.5,262.5 Z"/></g>
<g><path style="opacity:1" fill="#d9d7da" d="M 485.5,261.5 C 489.745,261.794 494.078,261.96 498.5,262C 499.617,265.073 499.784,268.24 499,271.5C 498.503,268.854 498.336,266.187 498.5,263.5C 496.856,263.286 495.356,263.62 494,264.5C 492.63,273.542 491.797,273.209 491.5,263.5C 490.178,263.33 489.011,263.663 488,264.5C 487.814,266.9 487.314,269.234 486.5,271.5C 485.513,268.232 485.18,264.898 485.5,261.5 Z"/></g>
<g><path style="opacity:1" fill="#dde7f6" d="M 150.5,257.5 C 155.575,257.18 157.408,259.514 156,264.5C 154.5,266 153,267.5 151.5,269C 153.577,269.192 155.577,269.692 157.5,270.5C 154.5,271.833 151.5,271.833 148.5,270.5C 151.036,267.801 153.369,264.968 155.5,262C 155.355,261.228 155.022,260.561 154.5,260C 152.833,259.667 151.167,259.333 149.5,259C 150.056,258.617 150.389,258.117 150.5,257.5 Z"/></g>
<g><path style="opacity:1" fill="#ecebec" d="M 58.5,261.5 C 60.5273,261.338 62.5273,261.505 64.5,262C 65.3802,263.356 65.7135,264.856 65.5,266.5C 56.3951,267.141 56.3951,268.308 65.5,270C 60.7392,272.785 58.0725,271.452 57.5,266C 57.6052,264.408 57.9386,262.908 58.5,261.5 Z"/></g>
<g><path style="opacity:1" fill="#736c75" d="M 60.5,262.5 C 62.3464,262.222 63.6798,262.889 64.5,264.5C 62.5,265.833 60.5,265.833 58.5,264.5C 59.2427,263.818 59.9094,263.151 60.5,262.5 Z"/></g>
<g><path style="opacity:1" fill="#e2e1e3" d="M 105.5,261.5 C 109.851,260.533 112.185,262.2 112.5,266.5C 110.167,266.5 107.833,266.5 105.5,266.5C 105.5,267.5 105.5,268.5 105.5,269.5C 107.604,269.201 109.604,269.534 111.5,270.5C 103.414,271.853 101.414,268.853 105.5,261.5 Z"/></g>
<g><path style="opacity:1" fill="#665f69" d="M 106.5,262.5 C 108.346,262.222 109.68,262.889 110.5,264.5C 108.833,265.833 107.167,265.833 105.5,264.5C 105.863,263.817 106.196,263.15 106.5,262.5 Z"/></g>
<g><path style="opacity:1" fill="#dedcde" d="M 84.5,262.5 C 86.5598,261.189 88.7265,261.189 91,262.5C 91.498,265.482 91.6646,268.482 91.5,271.5C 88.8806,271.768 86.3806,271.435 84,270.5C 83.302,266.349 85.1354,264.016 89.5,263.5C 87.9547,262.548 86.288,262.215 84.5,262.5 Z"/></g>
<g><path style="opacity:1" fill="#48404c" d="M 85.5,266.5 C 86.8333,266.5 88.1667,266.5 89.5,266.5C 89.5,267.5 89.5,268.5 89.5,269.5C 88.1667,269.5 86.8333,269.5 85.5,269.5C 85.5,268.5 85.5,267.5 85.5,266.5 Z"/></g>
<g><path style="opacity:1" fill="#e0e9f7" d="M 332.5,258.5 C 335.547,257.855 337.713,258.855 339,261.5C 339.893,264.916 339.393,268.083 337.5,271C 334.975,271.896 332.808,271.396 331,269.5C 330.112,265.598 330.612,261.931 332.5,258.5 Z"/></g>
<g><path style="opacity:1" fill="#3972c4" d="M 333.5,260.5 C 334.822,260.33 335.989,260.663 337,261.5C 337.667,264.167 337.667,266.833 337,269.5C 335.667,270.833 334.333,270.833 333,269.5C 332.264,266.408 332.431,263.408 333.5,260.5 Z"/></g>
<g><path style="opacity:1" fill="#457aca" d="M 532.5,264.5 C 536.35,264.701 537.35,266.534 535.5,270C 531.537,270.118 530.537,268.284 532.5,264.5 Z"/></g>
<g><path style="opacity:1" fill="#e0dfe1" d="M 74.5,261.5 C 78.8328,260.685 81.1662,262.352 81.5,266.5C 79.076,266.192 76.7427,266.526 74.5,267.5C 76.3153,269.694 78.482,270.028 81,268.5C 81.6172,269.449 81.4506,270.282 80.5,271C 72.8046,271.443 70.8046,268.277 74.5,261.5 Z"/></g>
<g><path style="opacity:1" fill="#67606a" d="M 75.5,262.5 C 77.3464,262.222 78.6798,262.889 79.5,264.5C 77.8333,265.833 76.1667,265.833 74.5,264.5C 74.8627,263.817 75.1961,263.15 75.5,262.5 Z"/></g>
<g><path style="opacity:1" fill="#e6e5e7" d="M 261.5,262.5 C 263.178,263.747 264.511,265.414 265.5,267.5C 266.357,266.264 267.023,264.931 267.5,263.5C 268.167,262.167 268.833,262.167 269.5,263.5C 268.14,267.421 266.306,271.088 264,274.5C 263.647,273.328 263.813,272.162 264.5,271C 263.061,268.295 262.061,265.462 261.5,262.5 Z"/></g>
<g><path style="opacity:1" fill="#adc5e9" d="M 160.5,268.5 C 161.5,268.5 162.5,268.5 163.5,268.5C 163.5,269.5 163.5,270.5 163.5,271.5C 162.5,271.5 161.5,271.5 160.5,271.5C 160.5,270.5 160.5,269.5 160.5,268.5 Z"/></g>
<g><path style="opacity:1" fill="#cfddf1" d="M 302.5,261.5 C 303.376,261.369 304.043,261.702 304.5,262.5C 305.236,264.541 306.069,266.541 307,268.5C 307.833,266.833 308.667,265.167 309.5,263.5C 310.002,262.479 310.668,262.312 311.5,263C 310.071,265.69 309.071,268.523 308.5,271.5C 307.5,271.5 306.5,271.5 305.5,271.5C 304.5,268.167 303.5,264.833 302.5,261.5 Z"/></g>
<g><path style="opacity:1" fill="#f0f4fa" d="M 325.5,269.5 C 327.337,269.639 327.67,270.306 326.5,271.5C 325.702,271.043 325.369,270.376 325.5,269.5 Z"/></g>
<g><path style="opacity:1" fill="#f2f6fb" d="M 342.5,269.5 C 344.337,269.639 344.67,270.306 343.5,271.5C 342.702,271.043 342.369,270.376 342.5,269.5 Z"/></g>
<g><path style="opacity:1" fill="#e3e1e3" d="M 475.5,274.5 C 475.183,270.298 475.517,266.298 476.5,262.5C 480.732,260.477 483.065,261.81 483.5,266.5C 483.174,270.813 480.841,272.48 476.5,271.5C 476.737,272.791 476.404,273.791 475.5,274.5 Z"/></g>
<g><path style="opacity:1" fill="#4d4551" d="M 477.5,263.5 C 478.833,263.5 480.167,263.5 481.5,263.5C 481.5,265.5 481.5,267.5 481.5,269.5C 479.833,269.5 478.167,269.5 476.5,269.5C 476.325,267.379 476.659,265.379 477.5,263.5 Z"/></g>
<g><path style="opacity:1" fill="#dee7f5" d="M 518.5,261.5 C 519.376,261.369 520.043,261.702 520.5,262.5C 521.236,264.541 522.069,266.541 523,268.5C 524.171,266.158 525.338,263.824 526.5,261.5C 524.97,274.78 522.304,274.78 518.5,261.5 Z"/></g>
<g><path style="opacity:1" fill="#d7d5d8" d="M 95.5,261.5 C 97.604,261.201 99.604,261.534 101.5,262.5C 99.4347,262.262 97.4347,262.762 95.5,264C 97.2194,265.057 99.0528,265.89 101,266.5C 101.179,271.173 99.0123,272.507 94.5,270.5C 100.268,269.496 100.602,268.162 95.5,266.5C 94.3336,264.833 94.3336,263.166 95.5,261.5 Z"/></g>
<g><path style="opacity:1" fill="#a2bde5" d="M 142.5,268.5 C 143.5,268.5 144.5,268.5 145.5,268.5C 145.5,269.5 145.5,270.5 145.5,271.5C 144.5,271.5 143.5,271.5 142.5,271.5C 142.5,270.5 142.5,269.5 142.5,268.5 Z"/></g>
<g><path style="opacity:1" fill="#e8e7e8" d="M 254.5,261.5 C 259.151,262.174 260.651,264.841 259,269.5C 257.211,271.229 255.044,271.896 252.5,271.5C 251.327,270.7 250.994,267.7 251.5,262.5C 252.791,262.737 253.791,262.404 254.5,261.5 Z"/></g>
<g><path style="opacity:1" fill="#504753" d="M 253.5,263.5 C 257.473,264.075 258.473,266.242 256.5,270C 255.216,270.684 254.049,270.517 253,269.5C 252.322,267.402 252.489,265.402 253.5,263.5 Z"/></g>
<g><path style="opacity:1" fill="#e8e7e8" d="M 275.5,261.5 C 280.151,262.174 281.651,264.841 280,269.5C 278.211,271.229 276.044,271.896 273.5,271.5C 272.327,270.7 271.994,267.7 272.5,262.5C 273.791,262.737 274.791,262.404 275.5,261.5 Z"/></g>
<g><path style="opacity:1" fill="#504753" d="M 274.5,263.5 C 278.473,264.075 279.473,266.242 277.5,270C 276.216,270.684 275.049,270.517 274,269.5C 273.322,267.402 273.489,265.402 274.5,263.5 Z"/></g>
<g><path style="opacity:1" fill="#d9e4f5" d="M 541.5,268.5 C 543.465,268.948 543.798,269.948 542.5,271.5C 541.614,270.675 541.281,269.675 541.5,268.5 Z"/></g>
<g><path style="opacity:1" fill="#acc4e8" d="M 558.5,268.5 C 559.5,268.5 560.5,268.5 561.5,268.5C 561.5,269.5 561.5,270.5 561.5,271.5C 560.5,271.5 559.5,271.5 558.5,271.5C 558.5,270.5 558.5,269.5 558.5,268.5 Z"/></g>
<g><path style="opacity:1" fill="#2d5695" d="M 293.5,249.5 C 293.833,249.5 294.167,249.5 294.5,249.5C 294.5,259.833 294.5,270.167 294.5,280.5C 318.167,280.5 341.833,280.5 365.5,280.5C 341.672,281.498 317.672,281.831 293.5,281.5C 293.5,270.833 293.5,260.167 293.5,249.5 Z"/></g>
<g><path style="opacity:1" fill="#2b5898" d="M 509.5,249.5 C 509.833,249.5 510.167,249.5 510.5,249.5C 510.5,259.833 510.5,270.167 510.5,280.5C 534.5,280.5 558.5,280.5 582.5,280.5C 558.339,281.498 534.006,281.831 509.5,281.5C 509.5,270.833 509.5,260.167 509.5,249.5 Z"/></g>
<g><path style="opacity:1" fill="#4a414e" d="M 291.5,308.5 C 291.5,318.5 291.5,328.5 291.5,338.5C 274.833,338.5 258.167,338.5 241.5,338.5C 241.5,328.5 241.5,318.5 241.5,308.5C 258.167,308.5 274.833,308.5 291.5,308.5 Z"/></g>
<g><path style="opacity:1" fill="#3672c8" d="M 291.5,308.5 C 331.167,308.5 370.833,308.5 410.5,308.5C 410.5,318.5 410.5,328.5 410.5,338.5C 370.833,338.5 331.167,338.5 291.5,338.5C 291.5,328.5 291.5,318.5 291.5,308.5 Z"/></g>
<g><path style="opacity:1" fill="#454651" d="M 609.5,309.5 C 574.5,309.5 539.5,309.5 504.5,309.5C 504.5,317.5 504.5,325.5 504.5,333.5C 539.5,333.5 574.5,333.5 609.5,333.5C 558.003,334.499 506.336,334.832 454.5,334.5C 454.5,325.833 454.5,317.167 454.5,308.5C 506.336,308.168 558.003,308.501 609.5,309.5 Z"/></g>
<g><path style="opacity:1" fill="#21b4bf" d="M 609.5,309.5 C 609.5,317.5 609.5,325.5 609.5,333.5C 574.5,333.5 539.5,333.5 504.5,333.5C 504.5,325.5 504.5,317.5 504.5,309.5C 539.5,309.5 574.5,309.5 609.5,309.5 Z"/></g>
<g><path style="opacity:1" fill="#ecf2fa" d="M 364.5,317.5 C 365.482,320.962 365.815,324.629 365.5,328.5C 365.167,329.833 364.833,329.833 364.5,328.5C 364.5,325.833 364.5,323.167 364.5,320.5C 363.325,320.719 362.325,320.386 361.5,319.5C 362.602,318.824 363.602,318.158 364.5,317.5 Z"/></g>
<g><path style="opacity:1" fill="#dfe8f6" d="M 378.5,317.5 C 381.044,317.104 383.211,317.771 385,319.5C 386.004,322.993 385.504,326.159 383.5,329C 381.559,329.743 379.726,329.576 378,328.5C 377.245,324.745 377.411,321.078 378.5,317.5 Z"/></g>
<g><path style="opacity:1" fill="#c9c6ca" d="M 461.5,316.5 C 462.931,317.082 464.264,317.915 465.5,319C 462.833,321.333 462.833,323.667 465.5,326C 464.216,326.684 463.049,326.517 462,325.5C 461.502,322.518 461.335,319.518 461.5,316.5 Z"/></g>
<g><path style="opacity:1" fill="#c1e9ec" d="M 556.5,318.5 C 558.429,318.231 560.095,318.731 561.5,320C 555.328,319.863 555.161,321.03 561,323.5C 561.617,324.449 561.451,325.282 560.5,326C 558.741,326.798 557.074,326.631 555.5,325.5C 556.687,325.446 558.02,325.113 559.5,324.5C 557.947,323.561 556.613,322.394 555.5,321C 555.743,320.098 556.077,319.265 556.5,318.5 Z"/></g>
<g><path style="opacity:1" fill="#def4f5" d="M 569.5,318.5 C 570.806,318.879 572.139,319.212 573.5,319.5C 572.675,320.386 571.675,320.719 570.5,320.5C 570.662,322.527 570.495,324.527 570,326.5C 569.503,323.854 569.336,321.187 569.5,318.5 Z"/></g>
<g><path style="opacity:1" fill="#cdeef0" d="M 525.5,316.5 C 526.534,317.687 527.867,318.52 529.5,319C 528.552,319.483 527.552,319.649 526.5,319.5C 525.855,322.547 526.855,324.713 529.5,326C 528.216,326.684 527.049,326.517 526,325.5C 525.502,322.518 525.335,319.518 525.5,316.5 Z"/></g>
<g><path style="opacity:1" fill="#e2f5f6" d="M 541.5,319.5 C 544.317,317.95 545.65,318.95 545.5,322.5C 545.333,323.5 545.167,324.5 545,325.5C 543.004,325.996 541.337,326.996 540,328.5C 539.833,327 539.667,325.5 539.5,324C 539.569,322.014 540.235,320.514 541.5,319.5 Z"/></g>
<g><path style="opacity:1" fill="#b6e6e9" d="M 598.5,316.5 C 599.931,317.082 601.264,317.915 602.5,319C 599.833,321.333 599.833,323.667 602.5,326C 601.216,326.684 600.049,326.517 599,325.5C 598.502,322.518 598.335,319.518 598.5,316.5 Z"/></g>
<g><path style="opacity:1" fill="#dedcde" d="M 250.5,320.5 C 257.107,318.749 259.607,321.082 258,327.5C 256.556,329.155 254.722,329.822 252.5,329.5C 252.719,330.675 252.386,331.675 251.5,332.5C 250.509,328.555 250.176,324.555 250.5,320.5 Z"/></g>
<g><path style="opacity:1" fill="#e0dee0" d="M 270.5,320.5 C 276.662,319.254 279.162,321.588 278,327.5C 276.556,329.155 274.722,329.822 272.5,329.5C 272.719,330.675 272.386,331.675 271.5,332.5C 270.509,328.555 270.176,324.555 270.5,320.5 Z"/></g>
<g><path style="opacity:1" fill="#d7d5d8" d="M 280.5,320.5 C 281.765,321.514 282.431,323.014 282.5,325C 282.167,326.5 281.833,328 281.5,329.5C 280.516,326.572 280.183,323.572 280.5,320.5 Z"/></g>
<g><path style="opacity:1" fill="#fcfdfe" d="M 318.5,321.5 C 317.772,324.079 317.272,326.746 317,329.5C 316.333,326.5 316.333,323.5 317,320.5C 317.383,321.056 317.883,321.389 318.5,321.5 Z"/></g>
<g><path style="opacity:1" fill="#fcfdfe" d="M 331.5,328.5 C 332.228,325.921 332.728,323.254 333,320.5C 333.667,323.5 333.667,326.5 333,329.5C 332.617,328.944 332.117,328.611 331.5,328.5 Z"/></g>
<g><path style="opacity:1" fill="#83d0d6" d="M 514.5,316.5 C 521.646,314.978 524.313,317.645 522.5,324.5C 520.134,324.133 517.8,324.633 515.5,326C 517.167,326.333 518.833,326.667 520.5,327C 515.608,328.69 512.608,327.023 511.5,322C 512.124,319.915 513.124,318.082 514.5,316.5 Z"/></g>
<g><path style="opacity:1" fill="#33b5bf" d="M 541.5,319.5 C 544.513,320.356 545.18,322.189 543.5,325C 542.552,325.483 541.552,325.649 540.5,325.5C 540.325,323.379 540.659,321.379 541.5,319.5 Z"/></g>
<g><path style="opacity:1" fill="#4e4551" d="M 253.5,321.5 C 255.722,321.559 256.722,322.725 256.5,325C 256.576,327.756 255.243,328.923 252.5,328.5C 252.298,326.05 252.631,323.717 253.5,321.5 Z"/></g>
<g><path style="opacity:1" fill="#e1e9f7" d="M 350.5,320.5 C 352.364,321.978 353.697,323.978 354.5,326.5C 355.41,324.345 356.577,322.345 358,320.5C 355.86,332.445 353.36,332.445 350.5,320.5 Z"/></g>
<g><path style="opacity:1" fill="#4277c6" d="M 379.5,318.5 C 380.822,318.33 381.989,318.663 383,319.5C 383.667,322.167 383.667,324.833 383,327.5C 379.697,328.695 378.197,327.362 378.5,323.5C 378.728,321.793 379.062,320.126 379.5,318.5 Z"/></g>
<g><path style="opacity:1" fill="#c5c2c7" d="M 492.5,318.5 C 494.288,318.215 495.955,318.548 497.5,319.5C 496.167,319.833 494.833,320.167 493.5,320.5C 495.053,321.439 496.387,322.606 497.5,324C 497.355,324.772 497.022,325.439 496.5,326C 494.741,326.798 493.074,326.631 491.5,325.5C 492.833,325.167 494.167,324.833 495.5,324.5C 493.947,323.561 492.613,322.394 491.5,321C 491.743,320.098 492.077,319.265 492.5,318.5 Z"/></g>
<g><path style="opacity:1" fill="#d1eff1" d="M 530.5,318.5 C 531.931,319.903 533.098,321.569 534,323.5C 534.667,322.167 535.333,320.833 536,319.5C 534.417,328.544 532.584,328.211 530.5,318.5 Z"/></g>
<g><path style="opacity:1" fill="#4e4552" d="M 273.5,321.5 C 275.722,321.559 276.722,322.725 276.5,325C 276.576,327.756 275.243,328.923 272.5,328.5C 272.298,326.05 272.631,323.717 273.5,321.5 Z"/></g>
<g><path style="opacity:1" fill="#d9e4f4" d="M 299.5,321.5 C 300.568,320.566 301.901,320.232 303.5,320.5C 303.665,324.182 303.499,327.848 303,331.5C 301.612,332.554 300.112,332.72 298.5,332C 299.448,331.517 300.448,331.351 301.5,331.5C 302.069,327.671 301.402,324.337 299.5,321.5 Z"/></g>
<g><path style="opacity:1" fill="#dfe8f6" d="M 318.5,321.5 C 319.884,320.199 321.384,320.199 323,321.5C 323.818,324.227 323.652,326.894 322.5,329.5C 321.52,326.914 321.187,324.247 321.5,321.5C 320.5,321.5 319.5,321.5 318.5,321.5 Z"/></g>
<g><path style="opacity:1" fill="#dad8da" d="M 472.5,318.5 C 473.043,318.56 473.376,318.893 473.5,319.5C 472.274,322.952 470.774,326.285 469,329.5C 468.405,328.101 468.572,326.768 469.5,325.5C 468.071,323.669 467.571,321.669 468,319.5C 469.667,324.427 471.167,324.094 472.5,318.5 Z"/></g>
<g><path style="opacity:1" fill="#86cfd5" d="M 552.5,319.5 C 553.468,321.607 553.802,323.941 553.5,326.5C 548.673,327.152 546.84,325.152 548,320.5C 550.045,322.043 551.545,321.71 552.5,319.5 Z"/></g>
<g><path style="opacity:1" fill="#c8ecee" d="M 575.5,319.5 C 577.023,321.51 578.856,321.844 581,320.5C 581.167,320.833 581.333,321.167 581.5,321.5C 575.428,322.478 575.094,323.978 580.5,326C 575.262,326.594 573.595,324.427 575.5,319.5 Z"/></g>
<g><path style="opacity:1" fill="#a3dde1" d="M 587.5,319.5 C 588.117,319.611 588.617,319.944 589,320.5C 589.495,322.473 589.662,324.473 589.5,326.5C 587.473,326.662 585.473,326.495 583.5,326C 582.978,325.439 582.645,324.772 582.5,324C 584.36,322.584 586.027,321.084 587.5,319.5 Z"/></g>
<g><path style="opacity:1" fill="#dfe8f5" d="M 337.5,320.5 C 339.288,320.215 340.955,320.548 342.5,321.5C 341.443,321.906 340.109,321.906 338.5,321.5C 338.5,322.5 338.5,323.5 338.5,324.5C 342.676,323.831 344.009,325.331 342.5,329C 340.421,329.808 338.421,329.641 336.5,328.5C 337.995,328.522 339.662,328.189 341.5,327.5C 340.345,326.05 338.845,325.05 337,324.5C 336.421,323.072 336.588,321.738 337.5,320.5 Z"/></g>
<g><path style="opacity:1" fill="#d2dff2" d="M 306.5,321.5 C 308.357,320.246 310.357,320.246 312.5,321.5C 313.48,324.086 313.813,326.753 313.5,329.5C 310.881,329.768 308.381,329.435 306,328.5C 305.701,324.797 307.534,322.964 311.5,323C 310.095,321.731 308.429,321.231 306.5,321.5 Z"/></g>
<g><path style="opacity:1" fill="#dad8db" d="M 477.5,319.5 C 480.317,317.95 481.65,318.95 481.5,322.5C 481.597,325.911 479.93,327.245 476.5,326.5C 475.205,326.11 475.039,323.443 476,318.5C 476.383,319.056 476.883,319.389 477.5,319.5 Z"/></g>
<g><path style="opacity:1" fill="#524a56" d="M 477.5,319.5 C 480.084,320.048 481.084,321.715 480.5,324.5C 479.167,324.5 477.833,324.5 476.5,324.5C 476.366,322.708 476.699,321.042 477.5,319.5 Z"/></g>
<g><path style="opacity:1" fill="#d1ced2" d="M 488.5,319.5 C 489.478,319.811 490.145,320.478 490.5,321.5C 488.833,322.167 487.167,322.833 485.5,323.5C 485.833,324.5 486.5,325.167 487.5,325.5C 488.451,324.674 489.451,324.508 490.5,325C 485.648,327.487 483.481,325.987 484,320.5C 486.045,322.043 487.545,321.71 488.5,319.5 Z"/></g>
<g><path style="opacity:1" fill="#c8ecee" d="M 592.5,318.5 C 594.429,318.231 596.095,318.731 597.5,320C 592.961,318.88 591.628,320.547 593.5,325C 594.833,325 596.167,325 597.5,325C 595.798,326.718 593.965,326.885 592,325.5C 591.297,323.071 591.463,320.738 592.5,318.5 Z"/></g>
<g><path style="opacity:1" fill="#e0dfe1" d="M 260.5,320.5 C 262.117,322.121 263.284,324.121 264,326.5C 265.115,325 265.948,323.333 266.5,321.5C 267.167,320.167 267.833,320.167 268.5,321.5C 266.756,325.246 264.923,328.912 263,332.5C 262.316,331.216 262.483,330.049 263.5,329C 262.071,326.31 261.071,323.477 260.5,320.5 Z"/></g>
<g><path style="opacity:1" fill="#3b73c2" d="M 307.5,325.5 C 308.978,325.238 310.311,325.571 311.5,326.5C 310.68,328.111 309.346,328.778 307.5,328.5C 307.5,327.5 307.5,326.5 307.5,325.5 Z"/></g>
<g><path style="opacity:1" fill="#d2dff3" d="M 399.5,318.5 C 400.117,318.611 400.617,318.944 401,319.5C 401.667,322.5 401.667,325.5 401,328.5C 398.408,329.982 396.075,329.648 394,327.5C 393.333,324.833 393.333,322.167 394,319.5C 395.678,317.447 397.511,317.113 399.5,318.5 Z"/></g>
<g><path style="opacity:1" fill="#3a73c7" d="M 399.5,318.5 C 399.5,321.833 399.5,325.167 399.5,328.5C 396.107,328.625 394.774,326.958 395.5,323.5C 394.774,320.042 396.107,318.375 399.5,318.5 Z"/></g>
<g><path style="opacity:1" fill="#c9d7f0" d="M 371.5,327.5 C 372.675,327.281 373.675,327.614 374.5,328.5C 372.948,329.798 371.948,329.465 371.5,327.5 Z"/></g>
<g><path style="opacity:1" fill="#f0f4fb" d="M 388.5,327.5 C 390.337,327.639 390.67,328.306 389.5,329.5C 388.702,329.043 388.369,328.376 388.5,327.5 Z"/></g>
<g><path style="opacity:1" fill="#4a424e" d="M 109.5,327.5 C 109.5,327.833 109.5,328.167 109.5,328.5C 109.5,337.167 109.5,345.833 109.5,354.5C 88.5,354.5 67.5,354.5 46.5,354.5C 46.5,345.5 46.5,336.5 46.5,327.5C 67.5,327.5 88.5,327.5 109.5,327.5 Z"/></g>
<g><path style="opacity:1" fill="#23bb43" d="M 109.5,328.5 C 132.5,328.5 155.5,328.5 178.5,328.5C 178.5,337.167 178.5,345.833 178.5,354.5C 155.5,354.5 132.5,354.5 109.5,354.5C 109.5,345.833 109.5,337.167 109.5,328.5 Z"/></g>
<g><path style="opacity:1" fill="#14632b" d="M 109.5,328.5 C 109.5,328.167 109.5,327.833 109.5,327.5C 132.833,327.5 156.167,327.5 179.5,327.5C 179.827,336.682 179.493,345.682 178.5,354.5C 178.5,345.833 178.5,337.167 178.5,328.5C 155.5,328.5 132.5,328.5 109.5,328.5 Z"/></g>
<g><path style="opacity:1" fill="#f6f9fc" d="M 331.5,328.5 C 330.116,329.801 328.616,329.801 327,328.5C 326.333,325.833 326.333,323.167 327,320.5C 327.333,322.833 327.667,325.167 328,327.5C 329.011,328.337 330.178,328.67 331.5,328.5 Z"/></g>
<g><path style="opacity:1" fill="#c8c5c9" d="M 87.5,335.5 C 89.1644,336.949 89.9977,338.949 90,341.5C 94.8163,337.486 95.3163,337.819 91.5,342.5C 95.3163,347.181 94.8163,347.514 90,343.5C 89.7508,344.624 89.2508,345.624 88.5,346.5C 87.5108,342.893 87.1774,339.226 87.5,335.5 Z"/></g>
<g><path style="opacity:1" fill="#dad8db" d="M 55.5,339.5 C 57.0348,338.212 58.7015,338.212 60.5,339.5C 59.1125,339.807 57.4458,339.807 55.5,339.5 Z"/></g>
<g><path style="opacity:1" fill="#cbefd2" d="M 124.5,338.5 C 126.308,339.918 126.975,341.918 126.5,344.5C 127.833,344.5 129.167,344.5 130.5,344.5C 130.338,342.473 130.505,340.473 131,338.5C 131.667,341.167 131.667,343.833 131,346.5C 129.27,346.491 127.437,346.158 125.5,345.5C 124.626,343.253 124.292,340.92 124.5,338.5 Z"/></g>
<g><path style="opacity:1" fill="#d3d1d4" d="M 61.5,334.5 C 63.1765,335.183 63.8432,336.517 63.5,338.5C 65.1667,338.5 66.8333,338.5 68.5,338.5C 68.6641,341.187 68.4974,343.854 68,346.5C 67.6667,344.5 67.3333,342.5 67,340.5C 65.9887,339.663 64.8221,339.33 63.5,339.5C 63.8076,341.924 63.4742,344.257 62.5,346.5C 61.5091,342.555 61.1758,338.555 61.5,334.5 Z"/></g>
<g><path style="opacity:1" fill="#d5d3d6" d="M 73.5,337.5 C 76.4841,337.787 77.8174,339.454 77.5,342.5C 75.712,342.215 74.0453,342.548 72.5,343.5C 73.6197,345.596 75.1197,345.93 77,344.5C 75.5003,347.066 73.5003,347.066 71,344.5C 70.162,341.519 70.9953,339.186 73.5,337.5 Z"/></g>
<g><path style="opacity:1" fill="#5c5560" d="M 72.5,339.5 C 73.9778,339.238 75.3112,339.571 76.5,340.5C 75.8333,340.833 75.1667,341.167 74.5,341.5C 73.2867,341.253 72.62,340.586 72.5,339.5 Z"/></g>
<g><path style="opacity:1" fill="#d2d0d3" d="M 55.5,339.5 C 55.3398,341.199 55.5065,342.866 56,344.5C 57.1131,345.711 58.2798,345.711 59.5,344.5C 60.6956,344.846 60.6956,345.346 59.5,346C 55,346.833 53.1667,345 54,340.5C 54.3826,339.944 54.8826,339.611 55.5,339.5 Z"/></g>
<g><path style="opacity:1" fill="#e2e0e2" d="M 100.5,345.5 C 99.6184,343.616 98.1184,342.283 96,341.5C 95.3828,340.551 95.5494,339.718 96.5,339C 98.1667,338.333 99.8333,338.333 101.5,339C 96.4598,339.744 96.2931,340.91 101,342.5C 101.74,343.749 101.573,344.749 100.5,345.5 Z"/></g>
<g><path style="opacity:1" fill="#e0f5e5" d="M 121.5,345.5 C 121.586,344.504 121.252,343.671 120.5,343C 117.354,342.89 116.354,341.557 117.5,339C 119.167,338.333 120.833,338.333 122.5,339C 117.46,339.744 117.293,340.91 122,342.5C 122.74,343.749 122.573,344.749 121.5,345.5 Z"/></g>
<g><path style="opacity:1" fill="#c8edd0" d="M 134.5,339.5 C 135.302,340.952 135.802,342.618 136,344.5C 137.113,345.711 138.28,345.711 139.5,344.5C 140.696,344.846 140.696,345.346 139.5,346C 134.262,346.594 132.595,344.427 134.5,339.5 Z"/></g>
<g><path style="opacity:1" fill="#effaf1" d="M 142.5,344.5 C 140.319,339.507 141.986,337.673 147.5,339C 143.541,338.791 141.874,340.625 142.5,344.5 Z"/></g>
<g><path style="opacity:1" fill="#dbf3e1" d="M 162.5,345.5 C 161.618,343.616 160.118,342.283 158,341.5C 157.383,340.551 157.549,339.718 158.5,339C 160.167,338.333 161.833,338.333 163.5,339C 158.46,339.744 158.293,340.91 163,342.5C 163.74,343.749 163.573,344.749 162.5,345.5 Z"/></g>
<g><path style="opacity:1" fill="#dcf3e0" d="M 150.5,339.5 C 151.946,338.387 153.613,338.22 155.5,339C 156.337,340.011 156.67,341.178 156.5,342.5C 154.396,342.201 152.396,342.534 150.5,343.5C 151.748,345.69 153.414,346.023 155.5,344.5C 156.696,344.846 156.696,345.346 155.5,346C 149.746,346.987 148.08,344.82 150.5,339.5 Z"/></g>
<g><path style="opacity:1" fill="#3abb55" d="M 150.5,339.5 C 151.978,339.238 153.311,339.571 154.5,340.5C 153.833,340.833 153.167,341.167 152.5,341.5C 151.287,341.253 150.62,340.586 150.5,339.5 Z"/></g>
<g><path style="opacity:1" fill="#d2f0d8" d="M 166.5,338.5 C 172.324,338.347 172.657,339.013 167.5,340.5C 171.021,341.15 172.021,342.983 170.5,346C 168.741,346.798 167.074,346.631 165.5,345.5C 167.256,345.64 168.922,345.14 170.5,344C 168.919,343.293 167.419,342.46 166,341.5C 165.53,340.423 165.697,339.423 166.5,338.5 Z"/></g>
<g><path style="opacity:1" fill="#c8c6c9" d="M 80.5,338.5 C 86.2076,338.492 86.5409,338.992 81.5,340C 80.1667,341.333 80.1667,342.667 81.5,344C 83.1667,344.333 84.8333,344.667 86.5,345C 80.3965,347.06 78.3965,344.893 80.5,338.5 Z"/></g>
<g><path style="opacity:1" fill="#dddbdd" d="M 100.5,345.5 C 98.8151,346.844 97.1484,346.677 95.5,345C 97.1075,345.019 98.7741,345.185 100.5,345.5 Z"/></g>
<g><path style="opacity:1" fill="#d4f2db" d="M 121.5,345.5 C 119.815,346.844 118.148,346.677 116.5,345C 118.107,345.019 119.774,345.185 121.5,345.5 Z"/></g>
<g><path style="opacity:1" fill="#cdeed4" d="M 142.5,344.5 C 144.372,345.359 146.038,345.692 147.5,345.5C 145.418,346.894 143.751,346.561 142.5,344.5 Z"/></g>
<g><path style="opacity:1" fill="#d4f2db" d="M 162.5,345.5 C 160.815,346.844 159.148,346.677 157.5,345C 159.107,345.019 160.774,345.185 162.5,345.5 Z"/></g>
<g><path style="opacity:1" fill="#4a414e" d="M 120.5,390.5 C 120.5,400.833 120.5,411.167 120.5,421.5C 97.8333,421.5 75.1667,421.5 52.5,421.5C 52.5,411.167 52.5,400.833 52.5,390.5C 75.1667,390.5 97.8333,390.5 120.5,390.5 Z"/></g>
<g><path style="opacity:1" fill="#274674" d="M 120.5,390.5 C 120.833,390.5 121.167,390.5 121.5,390.5C 121.5,400.833 121.5,411.167 121.5,421.5C 130.167,421.5 138.833,421.5 147.5,421.5C 138.5,422.833 129.5,422.833 120.5,421.5C 120.5,411.167 120.5,400.833 120.5,390.5 Z"/></g>
<g><path style="opacity:1" fill="#3473cb" d="M 121.5,390.5 C 130.167,390.5 138.833,390.5 147.5,390.5C 147.5,400.833 147.5,411.167 147.5,421.5C 138.833,421.5 130.167,421.5 121.5,421.5C 121.5,411.167 121.5,400.833 121.5,390.5 Z"/></g>
<g><path style="opacity:1" fill="#adafb1" d="M 365.5,399.5 C 334.5,399.5 303.5,399.5 272.5,399.5C 272.5,430.5 272.5,461.5 272.5,492.5C 303.5,492.5 334.5,492.5 365.5,492.5C 334.338,493.498 303.004,493.832 271.5,493.5C 271.5,461.833 271.5,430.167 271.5,398.5C 303.004,398.168 334.338,398.502 365.5,399.5 Z"/></g>
<g><path style="opacity:1" fill="#fdfdfb" d="M 365.5,399.5 C 365.5,430.5 365.5,461.5 365.5,492.5C 334.5,492.5 303.5,492.5 272.5,492.5C 272.5,461.5 272.5,430.5 272.5,399.5C 303.5,399.5 334.5,399.5 365.5,399.5 Z"/></g>
<g><path style="opacity:1" fill="#c4c1c5" d="M 61.5,399.5 C 63.337,399.639 63.6704,400.306 62.5,401.5C 61.7025,401.043 61.3691,400.376 61.5,399.5 Z"/></g>
<g><path style="opacity:1" fill="#d7e2f3" d="M 130.5,399.5 C 137.962,398.76 139.795,401.426 136,407.5C 135.097,408.701 133.931,409.535 132.5,410C 134.577,410.192 136.577,410.692 138.5,411.5C 135.914,412.48 133.247,412.813 130.5,412.5C 130.351,411.448 130.517,410.448 131,409.5C 133.222,407.615 135.056,405.449 136.5,403C 135.536,400.402 133.87,399.902 131.5,401.5C 130.702,401.043 130.369,400.376 130.5,399.5 Z"/></g>
<g><path style="opacity:1" fill="#dbd9dc" d="M 61.5,402.5 C 62.7773,403.694 63.4439,405.36 63.5,407.5C 63.1667,409.167 62.8333,410.833 62.5,412.5C 61.513,409.232 61.1796,405.898 61.5,402.5 Z"/></g>
<g><path style="opacity:1" fill="#d8d6d9" d="M 67.5,402.5 C 69.288,402.215 70.9547,402.548 72.5,403.5C 70.8598,403.153 69.1932,403.653 67.5,405C 69.4484,405.983 71.2817,407.15 73,408.5C 73.5074,409.996 73.0074,411.163 71.5,412C 64.92,412.103 64.92,411.27 71.5,409.5C 69.6136,408.594 67.7803,407.594 66,406.5C 65.7003,404.934 66.2003,403.601 67.5,402.5 Z"/></g>
<g><path style="opacity:1" fill="#d8d6d9" d="M 76.5,402.5 C 78.288,402.215 79.9547,402.548 81.5,403.5C 79.8598,403.153 78.1932,403.653 76.5,405C 78.4484,405.983 80.2817,407.15 82,408.5C 82.5074,409.996 82.0074,411.163 80.5,412C 73.92,412.103 73.92,411.27 80.5,409.5C 78.6136,408.594 76.7803,407.594 75,406.5C 74.7003,404.934 75.2003,403.601 76.5,402.5 Z"/></g>
<g><path style="opacity:1" fill="#d9d7da" d="M 106.5,402.5 C 113.576,402.857 113.909,403.857 107.5,405.5C 109.517,406.219 111.183,407.386 112.5,409C 111.13,412.379 108.797,413.212 105.5,411.5C 111.268,410.496 111.602,409.162 106.5,407.5C 105.334,405.833 105.334,404.166 106.5,402.5 Z"/></g>
<g><path style="opacity:1" fill="#e0dfe1" d="M 96.5,402.5 C 100.851,401.533 103.185,403.2 103.5,407.5C 101.076,407.192 98.7427,407.526 96.5,408.5C 96.7093,409.086 97.0426,409.586 97.5,410C 99.7612,410.239 101.761,410.406 103.5,410.5C 99.2879,413.648 96.2879,412.648 94.5,407.5C 94.9024,405.7 95.5691,404.033 96.5,402.5 Z"/></g>
<g><path style="opacity:1" fill="#5f5762" d="M 98.5,403.5 C 99.9953,403.415 100.995,404.081 101.5,405.5C 99.8333,406.833 98.1667,406.833 96.5,405.5C 97.2427,404.818 97.9094,404.151 98.5,403.5 Z"/></g>
<g><path style="opacity:1" fill="#d6d4d7" d="M 84.5,402.5 C 86.369,404.635 87.0356,407.302 86.5,410.5C 87.8333,410.5 89.1667,410.5 90.5,410.5C 90.1866,407.753 90.52,405.086 91.5,402.5C 92.8333,405.833 92.8333,409.167 91.5,412.5C 89.3984,412.521 87.2317,412.187 85,411.5C 84.502,408.518 84.3354,405.518 84.5,402.5 Z"/></g>
<g><path style="opacity:1" fill="#e9bc69" d="M 323.5,409.5 C 327.977,411.239 332.31,413.239 336.5,415.5C 334.897,415.312 333.563,415.812 332.5,417C 336.412,419.788 340.746,421.788 345.5,423C 346.833,423.667 346.833,424.333 345.5,425C 340.473,423.553 335.306,422.053 330,420.5C 328.373,420.625 326.873,421.125 325.5,422C 327.957,423.154 327.957,424.488 325.5,426C 320.481,427.354 315.648,429.188 311,431.5C 309.392,431.026 309.226,430.359 310.5,429.5C 314.256,427.908 317.59,425.741 320.5,423C 317.034,419.868 313.367,419.201 309.5,421C 308.446,419.612 308.28,418.112 309,416.5C 313.317,414.838 317.65,413.171 322,411.5C 323.03,411.164 323.53,410.497 323.5,409.5 Z"/></g>
<g><path style="opacity:1" fill="#e5b24f" d="M 323.5,409.5 C 323.53,410.497 323.03,411.164 322,411.5C 317.65,413.171 313.317,414.838 309,416.5C 308.28,418.112 308.446,419.612 309.5,421C 313.367,419.201 317.034,419.868 320.5,423C 317.59,425.741 314.256,427.908 310.5,429.5C 309.226,430.359 309.392,431.026 311,431.5C 315.648,429.188 320.481,427.354 325.5,426C 327.957,424.488 327.957,423.154 325.5,422C 326.873,421.125 328.373,420.625 330,420.5C 335.306,422.053 340.473,423.553 345.5,425C 346.833,424.333 346.833,423.667 345.5,423C 340.746,421.788 336.412,419.788 332.5,417C 333.563,415.812 334.897,415.312 336.5,415.5C 341.65,417.741 346.984,419.408 352.5,420.5C 352.5,434.5 352.5,448.5 352.5,462.5C 352.158,463.338 351.492,463.672 350.5,463.5C 351.813,450.229 351.813,436.896 350.5,423.5C 349.468,421.96 348.135,421.46 346.5,422C 348.087,424.865 347.42,427.032 344.5,428.5C 341.827,426.088 339.327,426.421 337,429.5C 336.501,435.491 336.334,441.491 336.5,447.5C 338.262,447.643 339.929,447.309 341.5,446.5C 341.998,443.748 343.164,441.415 345,439.5C 345.772,439.645 346.439,439.978 347,440.5C 347.273,442.101 347.773,443.601 348.5,445C 344.596,446.285 340.929,448.119 337.5,450.5C 336.671,455.467 336.171,460.467 336,465.5C 335.077,461.21 334.577,456.877 334.5,452.5C 333.022,452.238 331.689,452.571 330.5,453.5C 329.372,456.692 327.372,457.358 324.5,455.5C 322.484,456.178 320.484,456.844 318.5,457.5C 318.557,456.391 318.89,455.391 319.5,454.5C 324.46,453.273 329.293,451.607 334,449.5C 335.42,442.95 335.92,436.284 335.5,429.5C 329.871,430.617 324.371,432.284 319,434.5C 316.849,434.227 314.849,433.561 313,432.5C 312.29,433.973 311.124,434.64 309.5,434.5C 309.384,430.725 307.384,429.058 303.5,429.5C 303.802,432.059 303.468,434.393 302.5,436.5C 302.5,428.833 302.5,421.167 302.5,413.5C 307.193,413.102 311.526,411.602 315.5,409C 318.221,408.398 320.887,408.565 323.5,409.5 Z"/></g>
<g><path style="opacity:1" fill="#e6ac3c" d="M 350.5,463.5 C 340.044,467.895 329.71,472.562 319.5,477.5C 319.756,470.776 319.423,464.109 318.5,457.5C 320.484,456.844 322.484,456.178 324.5,455.5C 327.372,457.358 329.372,456.692 330.5,453.5C 331.689,452.571 333.022,452.238 334.5,452.5C 334.577,456.877 335.077,461.21 336,465.5C 336.171,460.467 336.671,455.467 337.5,450.5C 340.929,448.119 344.596,446.285 348.5,445C 347.773,443.601 347.273,442.101 347,440.5C 346.439,439.978 345.772,439.645 345,439.5C 343.164,441.415 341.998,443.748 341.5,446.5C 339.929,447.309 338.262,447.643 336.5,447.5C 336.334,441.491 336.501,435.491 337,429.5C 339.327,426.421 341.827,426.088 344.5,428.5C 347.42,427.032 348.087,424.865 346.5,422C 348.135,421.46 349.468,421.96 350.5,423.5C 351.813,436.896 351.813,450.229 350.5,463.5 Z"/></g>
<g><path style="opacity:1" fill="#e4ac3d" d="M 319.5,454.5 C 319.705,448.122 319.372,441.789 318.5,435.5C 315.287,435.81 312.287,435.477 309.5,434.5C 311.124,434.64 312.29,433.973 313,432.5C 314.849,433.561 316.849,434.227 319,434.5C 324.371,432.284 329.871,430.617 335.5,429.5C 335.92,436.284 335.42,442.95 334,449.5C 329.293,451.607 324.46,453.273 319.5,454.5 Z"/></g>
<g><path style="opacity:1" fill="#e2b55c" d="M 302.5,436.5 C 302.931,441.032 302.431,445.365 301,449.5C 298.609,447.474 296.443,447.474 294.5,449.5C 292.31,447.142 289.81,445.142 287,443.5C 286.5,449.825 286.334,456.158 286.5,462.5C 286.167,462.5 285.833,462.5 285.5,462.5C 285.334,455.825 285.5,449.158 286,442.5C 291.147,439.617 296.647,437.617 302.5,436.5 Z"/></g>
<g><path style="opacity:1" fill="#be8c2a" d="M 326.5,436.5 C 328.199,436.34 329.866,436.506 331.5,437C 333.233,442.299 331.566,446.132 326.5,448.5C 324.257,447.588 323.257,445.922 323.5,443.5C 324.025,440.971 325.025,438.638 326.5,436.5 Z"/></g>
<g><path style="opacity:1" fill="#c48b1d" d="M 309.5,434.5 C 312.287,435.477 315.287,435.81 318.5,435.5C 319.372,441.789 319.705,448.122 319.5,454.5C 318.89,455.391 318.557,456.391 318.5,457.5C 319.423,464.109 319.756,470.776 319.5,477.5C 318.167,477.167 316.833,476.833 315.5,476.5C 305.939,471.686 296.272,467.02 286.5,462.5C 286.334,456.158 286.5,449.825 287,443.5C 289.81,445.142 292.31,447.142 294.5,449.5C 296.443,447.474 298.609,447.474 301,449.5C 302.431,445.365 302.931,441.032 302.5,436.5C 303.468,434.393 303.802,432.059 303.5,429.5C 307.384,429.058 309.384,430.725 309.5,434.5 Z"/></g>
<g><path style="opacity:1" fill="#bf8b2c" d="M 343.5,450.5 C 349.558,450.97 351.058,453.97 348,459.5C 344.158,463.911 341.658,463.411 340.5,458C 340.548,455.078 341.548,452.578 343.5,450.5 Z"/></g>
<g><path style="opacity:1" fill="#7c6245" d="M 285.5,462.5 C 285.833,462.5 286.167,462.5 286.5,462.5C 296.272,467.02 305.939,471.686 315.5,476.5C 316.315,477.837 317.482,478.837 319,479.5C 319.494,481.134 319.66,482.801 319.5,484.5C 317.784,484.371 316.117,484.038 314.5,483.5C 314.607,479.39 312.773,476.723 309,475.5C 303.119,478.809 299.619,477.143 298.5,470.5C 297.167,469.833 295.833,469.167 294.5,468.5C 292.925,469.456 291.258,470.123 289.5,470.5C 288.22,469.069 286.553,468.402 284.5,468.5C 284.205,466.265 284.539,464.265 285.5,462.5 Z"/></g>
<g><path style="opacity:1" fill="#97734b" d="M 352.5,462.5 C 353.811,464.56 353.811,466.726 352.5,469C 341.448,474.195 330.448,479.361 319.5,484.5C 319.66,482.801 319.494,481.134 319,479.5C 317.482,478.837 316.315,477.837 315.5,476.5C 316.833,476.833 318.167,477.167 319.5,477.5C 329.71,472.562 340.044,467.895 350.5,463.5C 351.492,463.672 352.158,463.338 352.5,462.5 Z"/></g>
<g><path style="opacity:1" fill="#aeacab" d="M 314.5,483.5 C 306.319,482.729 299.653,479.229 294.5,473C 292.685,472.243 291.019,471.41 289.5,470.5C 291.258,470.123 292.925,469.456 294.5,468.5C 295.833,469.167 297.167,469.833 298.5,470.5C 299.619,477.143 303.119,478.809 309,475.5C 312.773,476.723 314.607,479.39 314.5,483.5 Z"/></g>
<g><path style="opacity:1" fill="#4a414e" d="M 131.5,525.5 C 131.5,536.167 131.5,546.833 131.5,557.5C 101.167,557.5 70.8333,557.5 40.5,557.5C 40.5,546.833 40.5,536.167 40.5,525.5C 70.8333,525.5 101.167,525.5 131.5,525.5 Z"/></g>
<g><path style="opacity:1" fill="#3472c8" d="M 131.5,525.5 C 163.167,525.5 194.833,525.5 226.5,525.5C 226.5,536.167 226.5,546.833 226.5,557.5C 194.833,557.5 163.167,557.5 131.5,557.5C 131.5,546.833 131.5,536.167 131.5,525.5 Z"/></g>
<g><path style="opacity:1" fill="#4a414e" d="M 460.5,530.5 C 460.5,539.167 460.5,547.833 460.5,556.5C 460.5,556.833 460.5,557.167 460.5,557.5C 429.833,557.5 399.167,557.5 368.5,557.5C 368.5,548.5 368.5,539.5 368.5,530.5C 399.167,530.5 429.833,530.5 460.5,530.5 Z"/></g>
<g><path style="opacity:1" fill="#3573ca" d="M 460.5,530.5 C 514.167,530.5 567.833,530.5 621.5,530.5C 621.5,539.167 621.5,547.833 621.5,556.5C 567.833,556.5 514.167,556.5 460.5,556.5C 460.5,547.833 460.5,539.167 460.5,530.5 Z"/></g>
<g><path style="opacity:1" fill="#e2ebf7" d="M 189.5,534.5 C 190.883,538.525 192.216,542.692 193.5,547C 191.5,547.667 189.5,547.667 187.5,547C 188.704,545.647 189.371,543.981 189.5,542C 189.371,540.019 188.704,538.353 187.5,537C 188.756,536.583 189.423,535.75 189.5,534.5 Z"/></g>
<g><path style="opacity:1" fill="#dfdddf" d="M 58.5,537.5 C 60.4817,537.995 62.4817,538.495 64.5,539C 63.2341,539.309 62.0674,539.809 61,540.5C 60.8142,542.9 60.3142,545.234 59.5,547.5C 58.513,544.232 58.1796,540.898 58.5,537.5 Z"/></g>
<g><path style="opacity:1" fill="#e1eaf7" d="M 154.5,534.5 C 155.883,538.525 157.216,542.692 158.5,547C 156.5,547.667 154.5,547.667 152.5,547C 153.704,545.647 154.371,543.981 154.5,542C 154.371,540.019 153.704,538.353 152.5,537C 153.756,536.583 154.423,535.75 154.5,534.5 Z"/></g>
<g><path style="opacity:1" fill="#e1e9f6" d="M 170.5,534.5 C 173.547,533.855 175.713,534.855 177,537.5C 177.893,540.916 177.393,544.083 175.5,547C 172.975,547.896 170.808,547.396 169,545.5C 168.013,541.525 168.513,537.859 170.5,534.5 Z"/></g>
<g><path style="opacity:1" fill="#4077c9" d="M 170.5,536.5 C 172.144,536.286 173.644,536.62 175,537.5C 175.667,539.833 175.667,542.167 175,544.5C 174.047,546.592 172.714,546.925 171,545.5C 170.502,542.518 170.335,539.518 170.5,536.5 Z"/></g>
<g><path style="opacity:1" fill="#cccace" d="M 415.5,537.5 C 416.794,539.048 417.461,541.048 417.5,543.5C 417.167,545.5 416.833,547.5 416.5,549.5C 415.509,545.555 415.176,541.555 415.5,537.5 Z"/></g>
<g><path style="opacity:1" fill="#bcd0ed" d="M 516.5,537.5 C 517.794,539.048 518.461,541.048 518.5,543.5C 518.167,545.5 517.833,547.5 517.5,549.5C 516.509,545.555 516.176,541.555 516.5,537.5 Z"/></g>
<g><path style="opacity:1" fill="#dddcde" d="M 76.5,535.5 C 78.2128,536.305 79.8794,537.305 81.5,538.5C 80.675,539.386 79.675,539.719 78.5,539.5C 78.5,541.833 78.5,544.167 78.5,546.5C 79.552,546.351 80.552,546.517 81.5,547C 79.8876,547.72 78.3876,547.554 77,546.5C 76.0947,542.745 75.928,539.079 76.5,535.5 Z"/></g>
<g><path style="opacity:1" fill="#bab7bb" d="M 109.5,537.5 C 110.777,538.694 111.444,540.36 111.5,542.5C 111.167,544.167 110.833,545.833 110.5,547.5C 109.513,544.232 109.18,540.898 109.5,537.5 Z"/></g>
<g><path style="opacity:1" fill="#dde6f5" d="M 140.5,538.5 C 142.178,539.747 143.511,541.414 144.5,543.5C 145.684,541.954 146.684,540.287 147.5,538.5C 145.971,550.307 143.637,550.307 140.5,538.5 Z"/></g>
<g><path style="opacity:1" fill="#d9e4f4" d="M 208.5,534.5 C 211.247,534.187 213.914,534.52 216.5,535.5C 214.604,536.466 212.604,536.799 210.5,536.5C 210.5,537.5 210.5,538.5 210.5,539.5C 215,539.164 216.833,541.164 216,545.5C 213.782,547.619 211.282,547.952 208.5,546.5C 210.021,546.12 211.687,545.954 213.5,546C 214.38,544.644 214.714,543.144 214.5,541.5C 212.5,541.5 210.5,541.5 208.5,541.5C 208.5,539.167 208.5,536.833 208.5,534.5 Z"/></g>
<g><path style="opacity:1" fill="#e1e0e2" d="M 51.5,537.5 C 58.1667,538.167 58.1667,538.833 51.5,539.5C 51.3379,541.527 51.5045,543.527 52,545.5C 53.6524,546.217 55.1524,546.55 56.5,546.5C 50.5342,548.031 48.3675,545.698 50,539.5C 50.7172,538.956 51.2172,538.289 51.5,537.5 Z"/></g>
<g><path style="opacity:1" fill="#e3e2e4" d="M 66.5,537.5 C 68.5914,537.318 70.5914,537.652 72.5,538.5C 73.4841,541.428 73.8174,544.428 73.5,547.5C 70.8806,547.768 68.3806,547.435 66,546.5C 65.3333,545.167 65.3333,543.833 66,542.5C 67.8254,541.897 69.6587,541.23 71.5,540.5C 69.3449,539.999 67.6782,538.999 66.5,537.5 Z"/></g>
<g><path style="opacity:1" fill="#dddbdd" d="M 85.5,537.5 C 89.3491,537.019 91.3491,538.686 91.5,542.5C 89.076,542.192 86.7427,542.526 84.5,543.5C 84.9767,544.478 85.6433,545.311 86.5,546C 88.3126,545.954 89.9793,546.12 91.5,546.5C 86.6987,548.75 83.6987,547.417 82.5,542.5C 83.0924,540.577 84.0924,538.911 85.5,537.5 Z"/></g>
<g><path style="opacity:1" fill="#48404c" d="M 85.5,539.5 C 86.9778,539.238 88.3112,539.571 89.5,540.5C 87.9255,541.631 86.2588,541.798 84.5,541C 85.056,540.617 85.3893,540.117 85.5,539.5 Z"/></g>
<g><path style="opacity:1" fill="#dee7f5" d="M 198.5,534.5 C 201.044,534.104 203.211,534.771 205,536.5C 205.218,539.976 205.051,543.476 204.5,547C 201.653,547.944 199.153,547.444 197,545.5C 198.283,541.996 198.783,538.33 198.5,534.5 Z"/></g>
<g><path style="opacity:1" fill="#4277c6" d="M 200.5,535.5 C 203.709,536.297 204.209,537.963 202,540.5C 199.491,539.347 198.991,537.68 200.5,535.5 Z"/></g>
<g><path style="opacity:1" fill="#baceeb" d="M 521.5,540.5 C 523.722,540.178 525.556,540.845 527,542.5C 527.497,544.81 527.663,547.143 527.5,549.5C 525.208,549.756 523.041,549.423 521,548.5C 520.207,544.954 521.707,543.12 525.5,543C 523.833,542.667 522.167,542.333 520.5,542C 521.056,541.617 521.389,541.117 521.5,540.5 Z"/></g>
<g><path style="opacity:1" fill="#b9ceec" d="M 529.5,538.5 C 531.078,539.066 532.412,540.066 533.5,541.5C 530.833,543.833 530.833,546.167 533.5,548.5C 532.349,549.731 531.183,549.731 530,548.5C 529.028,545.087 528.862,541.753 529.5,538.5 Z"/></g>
<g><path style="opacity:1" fill="#cbc8cc" d="M 387.5,540.5 C 391.976,540.822 393.476,543.156 392,547.5C 388.509,550.446 386.342,549.612 385.5,545C 385.519,543.167 386.185,541.667 387.5,540.5 Z"/></g>
<g><path style="opacity:1" fill="#c2bec3" d="M 409.5,540.5 C 410.822,540.33 411.989,540.663 413,541.5C 413.818,544.227 413.652,546.894 412.5,549.5C 411.526,547.257 411.192,544.924 411.5,542.5C 410.5,542.5 409.5,542.5 408.5,542.5C 408.808,544.924 408.474,547.257 407.5,549.5C 406.52,546.914 406.187,544.247 406.5,541.5C 407.791,541.737 408.791,541.404 409.5,540.5 Z"/></g>
<g><path style="opacity:1" fill="#a6bfe8" d="M 593.5,541.5 C 594.748,542.334 595.415,543.667 595.5,545.5C 595.167,546.833 594.833,548.167 594.5,549.5C 593.52,546.914 593.187,544.247 593.5,541.5 Z"/></g>
<g><path style="opacity:1" fill="#dad8db" d="M 94.5,537.5 C 101.576,537.857 101.909,538.857 95.5,540.5C 96.7357,541.357 98.069,542.023 99.5,542.5C 100.614,543.723 100.781,545.056 100,546.5C 97.8615,547.769 95.6948,547.769 93.5,546.5C 95.0026,545.948 96.6693,545.948 98.5,546.5C 98.5,545.5 98.5,544.5 98.5,543.5C 93.7398,543.799 92.4064,541.799 94.5,537.5 Z"/></g>
<g><path style="opacity:1" fill="#e3e2e4" d="M 115.5,537.5 C 122.341,538.016 124.007,541.182 120.5,547C 114.498,547.993 112.332,545.493 114,539.5C 114.717,538.956 115.217,538.289 115.5,537.5 Z"/></g>
<g><path style="opacity:1" fill="#524a56" d="M 115.5,539.5 C 120.328,539.385 121.661,541.552 119.5,546C 118.216,546.684 117.049,546.517 116,545.5C 115.505,543.527 115.338,541.527 115.5,539.5 Z"/></g>
<g><path style="opacity:1" fill="#4176c6" d="M 199.5,541.5 C 202.91,541.384 204.244,543.05 203.5,546.5C 199.065,547.078 197.732,545.411 199.5,541.5 Z"/></g>
<g><path style="opacity:1" fill="#d5e0f2" d="M 580.5,541.5 C 582.199,541.34 583.866,541.506 585.5,542C 582.121,542.711 580.621,544.878 581,548.5C 580.503,546.19 580.337,543.857 580.5,541.5 Z"/></g>
<g><path style="opacity:1" fill="#554e59" d="M 68.5,542.5 C 69.5,542.5 70.5,542.5 71.5,542.5C 71.8333,545.5 70.5,546.833 67.5,546.5C 67.4326,545.041 67.7659,543.708 68.5,542.5 Z"/></g>
<g><path style="opacity:1" fill="#4a414e" d="M 387.5,542.5 C 388.5,542.5 389.5,542.5 390.5,542.5C 390.5,544.167 390.5,545.833 390.5,547.5C 386.716,547.475 385.716,545.808 387.5,542.5 Z"/></g>
<g><path style="opacity:1" fill="#bab7bc" d="M 429.5,540.5 C 431.722,540.178 433.556,540.845 435,542.5C 435.497,544.81 435.663,547.143 435.5,549.5C 433.208,549.756 431.041,549.423 429,548.5C 428.207,544.954 429.707,543.12 433.5,543C 431.563,542.878 430.23,542.045 429.5,540.5 Z"/></g>
<g><path style="opacity:1" fill="#c8c5c8" d="M 442.5,537.5 C 444.423,541.029 445.089,545.029 444.5,549.5C 438.669,550.487 436.502,548.154 438,542.5C 439.11,540.963 440.61,540.297 442.5,540.5C 442.5,539.5 442.5,538.5 442.5,537.5 Z"/></g>
<g><path style="opacity:1" fill="#483f4c" d="M 439.5,542.5 C 440.5,542.5 441.5,542.5 442.5,542.5C 442.5,544.167 442.5,545.833 442.5,547.5C 441.5,547.5 440.5,547.5 439.5,547.5C 439.5,545.833 439.5,544.167 439.5,542.5 Z"/></g>
<g><path style="opacity:1" fill="#cedcf1" d="M 468.5,539.5 C 472.831,537.399 474.664,538.733 474,543.5C 472.833,544.667 471.667,545.833 470.5,547C 472.256,547.202 473.922,547.702 475.5,548.5C 472.833,549.833 470.167,549.833 467.5,548.5C 469.5,546.167 471.5,543.833 473.5,541.5C 472.332,539.783 470.665,539.116 468.5,539.5 Z"/></g>
<g><path style="opacity:1" fill="#cddbf0" d="M 478.5,539.5 C 480.223,538.193 482.057,538.193 484,539.5C 483.637,541.716 483.804,543.882 484.5,546C 483.281,549.345 481.114,550.179 478,548.5C 477.812,545.162 477.979,542.162 478.5,539.5 Z"/></g>
<g><path style="opacity:1" fill="#3f76c8" d="M 478.5,539.5 C 479.833,539.5 481.167,539.5 482.5,539.5C 482.5,540.5 482.5,541.5 482.5,542.5C 480.027,542.912 478.694,541.912 478.5,539.5 Z"/></g>
<g><path style="opacity:1" fill="#c4d5ee" d="M 551.5,538.5 C 552.931,539.446 554.264,540.612 555.5,542C 553.808,543.401 553.141,545.234 553.5,547.5C 554.675,547.281 555.675,547.614 556.5,548.5C 554.741,549.754 553.241,549.421 552,547.5C 551.502,544.518 551.335,541.518 551.5,538.5 Z"/></g>
<g><path style="opacity:1" fill="#bacdeb" d="M 572.5,540.5 C 576.349,540.019 578.349,541.686 578.5,545.5C 570.526,546.016 570.526,546.849 578.5,548C 574.473,550.596 571.806,549.596 570.5,545C 571.044,543.415 571.711,541.915 572.5,540.5 Z"/></g>
<g><path style="opacity:1" fill="#c3d4ee" d="M 599.5,540.5 C 600.93,540.421 602.264,540.754 603.5,541.5C 604.777,544.034 604.777,546.534 603.5,549C 598.504,549.664 596.67,547.498 598,542.5C 598.717,541.956 599.217,541.289 599.5,540.5 Z"/></g>
<g><path style="opacity:1" fill="#3973c8" d="M 599.5,542.5 C 602.91,542.384 604.244,544.05 603.5,547.5C 602.167,547.5 600.833,547.5 599.5,547.5C 599.5,545.833 599.5,544.167 599.5,542.5 Z"/></g>
<g><path style="opacity:1" fill="#e8eef8" d="M 609.5,540.5 C 610.822,540.33 611.989,540.663 613,541.5C 613.667,543.833 613.667,546.167 613,548.5C 612.505,546.527 612.338,544.527 612.5,542.5C 611.167,542.5 609.833,542.5 608.5,542.5C 608.662,544.527 608.495,546.527 608,548.5C 607.133,545.479 607.633,542.812 609.5,540.5 Z"/></g>
<g><path style="opacity:1" fill="#cecbcf" d="M 447.5,540.5 C 453.261,540.87 453.594,541.87 448.5,543.5C 452.021,544.15 453.021,545.983 451.5,549C 449.597,549.774 447.93,549.44 446.5,548C 452.913,547.745 453.08,546.578 447,544.5C 446.421,543.072 446.588,541.738 447.5,540.5 Z"/></g>
<g><path style="opacity:1" fill="#c0d1ed" d="M 537.5,540.5 C 540.833,540.5 542.5,542.167 542.5,545.5C 534.526,546.016 534.526,546.849 542.5,548C 538.656,550.367 535.989,549.367 534.5,545C 534.957,543.06 535.957,541.56 537.5,540.5 Z"/></g>
<g><path style="opacity:1" fill="#c9d8f0" d="M 545.5,540.5 C 550.694,540.942 550.694,541.942 545.5,543.5C 546.689,544.429 548.022,544.762 549.5,544.5C 549.678,549.453 547.678,550.619 543.5,548C 545.167,547.667 546.833,547.333 548.5,547C 546.602,546.1 544.936,544.934 543.5,543.5C 544.193,542.482 544.859,541.482 545.5,540.5 Z"/></g>
<g><path style="opacity:1" fill="#3672c7" d="M 478.5,544.5 C 479.833,544.5 481.167,544.5 482.5,544.5C 482.5,545.5 482.5,546.5 482.5,547.5C 481.167,547.5 479.833,547.5 478.5,547.5C 478.5,546.5 478.5,545.5 478.5,544.5 Z"/></g>
<g><path style="opacity:1" fill="#c2d3ed" d="M 587.5,540.5 C 594.057,541.395 594.057,542.395 587.5,543.5C 593.578,544.934 593.911,546.934 588.5,549.5C 587.263,549.444 586.263,548.944 585.5,548C 587.167,547.667 588.833,547.333 590.5,547C 589.437,545.812 588.103,545.312 586.5,545.5C 586.366,543.708 586.699,542.042 587.5,540.5 Z"/></g>
<g><path style="opacity:1" fill="#d8d6d9" d="M 103.5,544.5 C 105.465,544.948 105.798,545.948 104.5,547.5C 103.614,546.675 103.281,545.675 103.5,544.5 Z"/></g>
<g><path style="opacity:1" fill="#a1bce5" d="M 162.5,544.5 C 163.5,544.5 164.5,544.5 165.5,544.5C 165.5,545.5 165.5,546.5 165.5,547.5C 164.5,547.5 163.5,547.5 162.5,547.5C 162.5,546.5 162.5,545.5 162.5,544.5 Z"/></g>
<g><path style="opacity:1" fill="#f1f5fb" d="M 180.5,545.5 C 182.337,545.639 182.67,546.306 181.5,547.5C 180.702,547.043 180.369,546.376 180.5,545.5 Z"/></g>
<g><path style="opacity:1" fill="#cecccf" d="M 394.5,541.5 C 396.067,542.681 396.901,544.347 397,546.5C 398.667,539.833 400.333,539.833 402,546.5C 402.202,544.744 402.702,543.078 403.5,541.5C 404.598,544.399 404.098,547.065 402,549.5C 401.417,547.998 400.584,546.665 399.5,545.5C 398.719,546.737 397.719,547.737 396.5,548.5C 395.056,546.392 394.39,544.059 394.5,541.5 Z"/></g>
<g><path style="opacity:1" fill="#d2dff3" d="M 492.5,539.5 C 494.693,538.203 497.027,538.203 499.5,539.5C 497.921,542.994 496.087,546.327 494,549.5C 494.524,546.419 495.691,543.419 497.5,540.5C 495.955,539.548 494.288,539.215 492.5,539.5 Z"/></g>
<g><path style="opacity:1" fill="#d7e2f3" d="M 501.5,538.5 C 503.045,539.23 503.878,540.563 504,542.5C 510.153,537.156 510.653,537.489 505.5,543.5C 510.653,549.511 510.153,549.844 504,544.5C 503.798,546.256 503.298,547.922 502.5,549.5C 501.511,545.893 501.177,542.226 501.5,538.5 Z"/></g>
<g><path style="opacity:1" fill="#4276c4" d="M 521.5,545.5 C 522.978,545.238 524.311,545.571 525.5,546.5C 524.833,546.833 524.167,547.167 523.5,547.5C 522.287,547.253 521.62,546.586 521.5,545.5 Z"/></g>
<g><path style="opacity:1" fill="#cac7cb" d="M 421.5,540.5 C 424.83,540.163 426.496,541.663 426.5,545C 425.697,549.6 423.531,550.433 420,547.5C 419.167,544.829 419.667,542.496 421.5,540.5 Z"/></g>
<g><path style="opacity:1" fill="#4c4450" d="M 421.5,542.5 C 424.91,542.384 426.244,544.05 425.5,547.5C 424.167,547.5 422.833,547.5 421.5,547.5C 421.5,545.833 421.5,544.167 421.5,542.5 Z"/></g>
<g><path style="opacity:1" fill="#cfdcf1" d="M 562.5,541.5 C 564.136,542.749 565.303,544.416 566,546.5C 566.739,544.779 567.573,543.113 568.5,541.5C 567.307,551.973 565.307,551.973 562.5,541.5 Z"/></g>
<g><path style="opacity:1" fill="#bbb8bd" d="M 381.5,537.5 C 383.423,541.029 384.089,545.029 383.5,549.5C 377.326,550.827 375.159,548.494 377,542.5C 378.11,540.963 379.61,540.297 381.5,540.5C 381.5,539.5 381.5,538.5 381.5,537.5 Z"/></g>
<g><path style="opacity:1" fill="#4b434f" d="M 378.5,542.5 C 379.5,542.5 380.5,542.5 381.5,542.5C 381.5,544.167 381.5,545.833 381.5,547.5C 380.167,547.5 378.833,547.5 377.5,547.5C 377.366,545.708 377.699,544.042 378.5,542.5 Z"/></g>
<g><path style="opacity:1" fill="#2a5a9e" d="M 621.5,530.5 C 622.493,539.318 622.827,548.318 622.5,557.5C 568.5,557.5 514.5,557.5 460.5,557.5C 460.5,557.167 460.5,556.833 460.5,556.5C 514.167,556.5 567.833,556.5 621.5,556.5C 621.5,547.833 621.5,539.167 621.5,530.5 Z"/></g>
<g><path style="opacity:1" fill="#4a414e" d="M 315.5,588.5 C 315.5,598.5 315.5,608.5 315.5,618.5C 287.5,618.5 259.5,618.5 231.5,618.5C 231.5,608.5 231.5,598.5 231.5,588.5C 259.5,588.5 287.5,588.5 315.5,588.5 Z"/></g>
<g><path style="opacity:1" fill="#d3d1d4" d="M 264.5,597.5 C 266.213,598.305 267.879,599.305 269.5,600.5C 268.675,601.386 267.675,601.719 266.5,601.5C 266.5,603.5 266.5,605.5 266.5,607.5C 267.675,607.281 268.675,607.614 269.5,608.5C 267.741,609.754 266.241,609.421 265,607.5C 264.502,604.183 264.335,600.85 264.5,597.5 Z"/></g>
<g><path style="opacity:1" fill="#d4d2d5" d="M 241.5,599.5 C 247.966,600.623 247.966,601.29 241.5,601.5C 241.5,603.5 241.5,605.5 241.5,607.5C 243.199,607.34 244.866,607.506 246.5,608C 240.63,610.135 238.463,607.969 240,601.5C 240.717,600.956 241.217,600.289 241.5,599.5 Z"/></g>
<g><path style="opacity:1" fill="#dddbdd" d="M 248.5,600.5 C 250.199,600.34 251.866,600.506 253.5,601C 252.584,601.374 251.75,601.874 251,602.5C 250.808,604.577 250.308,606.577 249.5,608.5C 248.52,605.914 248.187,603.247 248.5,600.5 Z"/></g>
<g><path style="opacity:1" fill="#dbd9db" d="M 273.5,599.5 C 277.5,598.833 279.167,600.5 278.5,604.5C 270.726,605.143 270.726,606.31 278.5,608C 274.405,610.443 271.738,609.276 270.5,604.5C 271.092,602.577 272.092,600.911 273.5,599.5 Z"/></g>
<g><path style="opacity:1" fill="#d0cdd1" d="M 282.5,599.5 C 289.057,600.395 289.057,601.395 282.5,602.5C 284.783,603.135 286.449,604.468 287.5,606.5C 286.921,608.461 285.587,609.461 283.5,609.5C 282,609.547 281,608.881 280.5,607.5C 281.995,607.522 283.662,607.189 285.5,606.5C 280.872,605.306 279.872,602.973 282.5,599.5 Z"/></g>
<g><path style="opacity:1" fill="#b3afb4" d="M 295.5,597.5 C 296.794,599.048 297.461,601.048 297.5,603.5C 297.167,605.5 296.833,607.5 296.5,609.5C 295.509,605.555 295.176,601.555 295.5,597.5 Z"/></g>
<g><path style="opacity:1" fill="#48404c" d="M 273.5,601.5 C 275.103,601.312 276.437,601.812 277.5,603C 275.833,603.667 274.167,603.667 272.5,603C 273.056,602.617 273.389,602.117 273.5,601.5 Z"/></g>
<g><path style="opacity:1" fill="#d0ced1" d="M 301.5,599.5 C 306.989,599.504 308.822,602.171 307,607.5C 304.667,610.167 302.333,610.167 300,607.5C 299.109,604.502 299.609,601.836 301.5,599.5 Z"/></g>
<g><path style="opacity:1" fill="#4c4450" d="M 301.5,601.5 C 302.833,601.5 304.167,601.5 305.5,601.5C 305.5,603.5 305.5,605.5 305.5,607.5C 304.167,607.5 302.833,607.5 301.5,607.5C 301.5,605.5 301.5,603.5 301.5,601.5 Z"/></g>
<g><path style="opacity:1" fill="#d6d4d7" d="M 255.5,599.5 C 262.32,599.601 264.32,602.934 261.5,609.5C 260.402,608.385 259.235,608.385 258,609.5C 254.822,608.615 253.989,606.782 255.5,604C 257.256,603.798 258.922,603.298 260.5,602.5C 258.345,601.999 256.678,600.999 255.5,599.5 Z"/></g>
<g><path style="opacity:1" fill="#4d4551" d="M 256.5,604.5 C 257.833,604.5 259.167,604.5 260.5,604.5C 260.5,605.5 260.5,606.5 260.5,607.5C 259.167,607.5 257.833,607.5 256.5,607.5C 256.5,606.5 256.5,605.5 256.5,604.5 Z"/></g>
<g><path style="opacity:1" fill="#284c82" d="M 315.5,588.5 C 315.833,588.5 316.167,588.5 316.5,588.5C 316.5,598.167 316.5,607.833 316.5,617.5C 336.167,617.5 355.833,617.5 375.5,617.5C 375.5,607.833 375.5,598.167 375.5,588.5C 376.494,598.319 376.827,608.319 376.5,618.5C 356.167,618.5 335.833,618.5 315.5,618.5C 315.5,608.5 315.5,598.5 315.5,588.5 Z"/></g>
<g><path style="opacity:1" fill="#3573cb" d="M 316.5,588.5 C 336.167,588.5 355.833,588.5 375.5,588.5C 375.5,598.167 375.5,607.833 375.5,617.5C 355.833,617.5 336.167,617.5 316.5,617.5C 316.5,607.833 316.5,598.167 316.5,588.5 Z"/></g>
<g><path style="opacity:1" fill="#d7e2f4" d="M 361.5,601.5 C 362.314,599.727 363.648,599.227 365.5,600C 367.107,601.049 367.773,602.549 367.5,604.5C 359.726,605.143 359.726,606.31 367.5,608C 363.354,610.43 360.687,609.263 359.5,604.5C 359.453,602.962 360.12,601.962 361.5,601.5 Z"/></g>
<g><path style="opacity:1" fill="#3d73c3" d="M 361.5,601.5 C 363.429,601.231 365.095,601.731 366.5,603C 365.667,603.167 364.833,603.333 364,603.5C 362.624,603.316 361.791,602.649 361.5,601.5 Z"/></g>
<g><path style="opacity:1" fill="#c9d8f0" d="M 326.5,599.5 C 328.665,599.116 330.332,599.783 331.5,601.5C 330.005,601.478 328.338,601.811 326.5,602.5C 328.737,603.132 330.403,604.465 331.5,606.5C 329.704,609.7 327.371,610.2 324.5,608C 326.256,607.798 327.922,607.298 329.5,606.5C 324.663,605.463 323.663,603.13 326.5,599.5 Z"/></g>
<g><path style="opacity:1" fill="#d7e2f4" d="M 335.5,599.5 C 339.5,598.833 341.167,600.5 340.5,604.5C 332.726,605.143 332.726,606.31 340.5,608C 336.405,610.443 333.738,609.276 332.5,604.5C 333.092,602.577 334.092,600.911 335.5,599.5 Z"/></g>
<g><path style="opacity:1" fill="#326ec0" d="M 335.5,601.5 C 337.103,601.312 338.437,601.812 339.5,603C 337.833,603.667 336.167,603.667 334.5,603C 335.056,602.617 335.389,602.117 335.5,601.5 Z"/></g>
<g><path style="opacity:1" fill="#d2dff3" d="M 355.5,596.5 C 357.423,600.029 358.089,604.029 357.5,608.5C 350.118,610.277 347.951,607.611 351,600.5C 352.356,599.62 353.856,599.286 355.5,599.5C 355.5,598.5 355.5,597.5 355.5,596.5 Z"/></g>
<g><path style="opacity:1" fill="#366fc1" d="M 352.5,601.5 C 353.5,601.5 354.5,601.5 355.5,601.5C 355.5,603.5 355.5,605.5 355.5,607.5C 354.167,607.5 352.833,607.5 351.5,607.5C 351.325,605.379 351.659,603.379 352.5,601.5 Z"/></g>
<g><path style="opacity:1" fill="#fcfdfe" d="M 343.5,600.5 C 344.289,600.783 344.956,601.283 345.5,602C 344.736,604.069 344.236,606.236 344,608.5C 343.503,605.854 343.336,603.187 343.5,600.5 Z"/></g>
</svg>
